ISO-10303-21;
HEADER;
FILE_DESCRIPTION(('STEP AP214'),
    '1');
FILE_NAME('PLS-1',
    '2022-07-06T10:21:15',
    (''),
    (''),
    'ASCON STEP Converter 1.3',
    'ASCON Math Kernel',
    '');
/*PLS-1*/
FILE_SCHEMA(('AUTOMOTIVE_DESIGN { 1 0 10303 214 3 1 1}'));
ENDSEC;

DATA;
#1=SHAPE_REPRESENTATION('NONE',(#2),#6);
#2=AXIS2_PLACEMENT_3D('',#3,#4,#5);
#3=CARTESIAN_POINT('',(0.,0.,0.));
#4=DIRECTION('',(0.,0.,1.));
#5=DIRECTION('',(1.,0.,0.));
#6=(GEOMETRIC_REPRESENTATION_CONTEXT(3)GLOBAL_UNCERTAINTY_ASSIGNED_CONTEXT((#8))
GLOBAL_UNIT_ASSIGNED_CONTEXT((#7,#9,#10))REPRESENTATION_CONTEXT('NONE','NONE'));
#7=(LENGTH_UNIT()NAMED_UNIT(*)SI_UNIT(.MILLI.,.METRE.));
#8=UNCERTAINTY_MEASURE_WITH_UNIT(LENGTH_MEASURE(1.E-005),#7,'NONE','NONE');
#9=(NAMED_UNIT(*)PLANE_ANGLE_UNIT()SI_UNIT($,.RADIAN.));
#10=(NAMED_UNIT(*)SI_UNIT($,.STERADIAN.)SOLID_ANGLE_UNIT());
#11=SHAPE_DEFINITION_REPRESENTATION(#12,#1);
#12=PRODUCT_DEFINITION_SHAPE('NONE','NONE',#13);
#13=PRODUCT_DEFINITION('','UNSPECIFIED',#14,#17);
#14=PRODUCT_DEFINITION_FORMATION_WITH_SPECIFIED_SOURCE('ANY','UNSPECIFIED',#15,.NOT_KNOWN.);
#15=PRODUCT('',' Деталь','PLS-1',(#20));
#16=PRODUCT_RELATED_PRODUCT_CATEGORY('detail','',(#15));
#17=DESIGN_CONTEXT('detailed design',#18,'design');
#18=APPLICATION_CONTEXT('configuration controlled 3d designs of mechanical parts and assemblies');
#19=APPLICATION_PROTOCOL_DEFINITION('international standard','automotive_design',
2011,#18);
#20=MECHANICAL_CONTEXT('NONE',#18,'mechanical');
#21=CC_DESIGN_DATE_AND_TIME_ASSIGNMENT(#22,#26,(#13));
#22=DATE_AND_TIME(#23,#24);
#23=CALENDAR_DATE(0,1,1);
#24=LOCAL_TIME(0,0,0.,#25);
#25=COORDINATED_UNIVERSAL_TIME_OFFSET(0,0,.AHEAD.);
#26=DATE_TIME_ROLE('creation_date');
#27=CC_DESIGN_APPROVAL(#28,(#13));
#28=APPROVAL(#29,'UNSPECIFIED');
#29=APPROVAL_STATUS('not_yet_approved');
#30=APPROVAL_DATE_TIME(#31,#28);
#31=DATE_AND_TIME(#32,#33);
#32=CALENDAR_DATE(0,1,1);
#33=LOCAL_TIME(0,0,0.,#34);
#34=COORDINATED_UNIVERSAL_TIME_OFFSET(0,0,.AHEAD.);
#35=DERIVED_UNIT((#39,#36));
#36=DERIVED_UNIT_ELEMENT(#37,-1.);
#37=VOLUME_UNIT(#38);
#38=DIMENSIONAL_EXPONENTS(3.,0.,0.,0.,0.,0.,0.);
#39=(NAMED_UNIT($)MASS_UNIT()SI_UNIT($,.GRAM.));
#40=MANIFOLD_SOLID_BREP('',#41);
#41=CLOSED_SHELL('',(#53,#62,#71,#80,#89,#98,#107,#116,#125,#134,#143,#152,#161,
#170,#179,#188,#197,#206,#215,#224,#233,#242,#251,#260,#269,#278,#287,#296,#305,
#314,#323,#332,#341,#350,#359,#368,#377,#386,#395,#404,#413,#422,#431,#440,#449,
#458,#467,#476));
#42=COLOUR_RGB($,0.564705882352941,0.564705882352941,0.564705882352941);
#43=FILL_AREA_STYLE_COLOUR($,#42);
#44=FILL_AREA_STYLE($,(#43));
#45=SURFACE_STYLE_FILL_AREA(#44);
#46=SURFACE_SIDE_STYLE('',(#45));
#47=SURFACE_STYLE_USAGE(.BOTH.,#46);
#48=PRESENTATION_STYLE_ASSIGNMENT((#47));
#49=MECHANICAL_DESIGN_GEOMETRIC_PRESENTATION_REPRESENTATION('NONE',(#50,#61,#70,
#79,#88,#97,#106,#115,#124,#133,#142,#151,#160,#169,#178,#187,#196,#205,#214,#223,
#232,#241,#250,#259,#268,#277,#286,#295,#304,#313,#322,#331,#340,#349,#358,#367,
#376,#385,#394,#403,#412,#421,#430,#439,#448,#457,#466,#475,#484),#6);
#50=STYLED_ITEM('',(#48),#40);
#51=ADVANCED_BREP_SHAPE_REPRESENTATION('NONE',(#40),#6);
#52=SHAPE_REPRESENTATION_RELATIONSHIP('','',#1,#51);
#53=ADVANCED_FACE('',(#485,#487),#489,.F.);
#54=COLOUR_RGB($,0.188235294117647,0.188235294117647,0.188235294117647);
#55=FILL_AREA_STYLE_COLOUR($,#54);
#56=FILL_AREA_STYLE($,(#55));
#57=SURFACE_STYLE_FILL_AREA(#56);
#58=SURFACE_SIDE_STYLE('',(#57));
#59=SURFACE_STYLE_USAGE(.BOTH.,#58);
#60=PRESENTATION_STYLE_ASSIGNMENT((#59));
#61=STYLED_ITEM('',(#60),#53);
#62=ADVANCED_FACE('',(#494),#496,.T.);
#63=COLOUR_RGB($,0.188235294117647,0.188235294117647,0.188235294117647);
#64=FILL_AREA_STYLE_COLOUR($,#63);
#65=FILL_AREA_STYLE($,(#64));
#66=SURFACE_STYLE_FILL_AREA(#65);
#67=SURFACE_SIDE_STYLE('',(#66));
#68=SURFACE_STYLE_USAGE(.BOTH.,#67);
#69=PRESENTATION_STYLE_ASSIGNMENT((#68));
#70=STYLED_ITEM('',(#69),#62);
#71=ADVANCED_FACE('',(#501),#503,.T.);
#72=COLOUR_RGB($,0.188235294117647,0.188235294117647,0.188235294117647);
#73=FILL_AREA_STYLE_COLOUR($,#72);
#74=FILL_AREA_STYLE($,(#73));
#75=SURFACE_STYLE_FILL_AREA(#74);
#76=SURFACE_SIDE_STYLE('',(#75));
#77=SURFACE_STYLE_USAGE(.BOTH.,#76);
#78=PRESENTATION_STYLE_ASSIGNMENT((#77));
#79=STYLED_ITEM('',(#78),#71);
#80=ADVANCED_FACE('',(#508),#510,.F.);
#81=COLOUR_RGB($,0.188235294117647,0.188235294117647,0.188235294117647);
#82=FILL_AREA_STYLE_COLOUR($,#81);
#83=FILL_AREA_STYLE($,(#82));
#84=SURFACE_STYLE_FILL_AREA(#83);
#85=SURFACE_SIDE_STYLE('',(#84));
#86=SURFACE_STYLE_USAGE(.BOTH.,#85);
#87=PRESENTATION_STYLE_ASSIGNMENT((#86));
#88=STYLED_ITEM('',(#87),#80);
#89=ADVANCED_FACE('',(#515),#517,.F.);
#90=COLOUR_RGB($,0.188235294117647,0.188235294117647,0.188235294117647);
#91=FILL_AREA_STYLE_COLOUR($,#90);
#92=FILL_AREA_STYLE($,(#91));
#93=SURFACE_STYLE_FILL_AREA(#92);
#94=SURFACE_SIDE_STYLE('',(#93));
#95=SURFACE_STYLE_USAGE(.BOTH.,#94);
#96=PRESENTATION_STYLE_ASSIGNMENT((#95));
#97=STYLED_ITEM('',(#96),#89);
#98=ADVANCED_FACE('',(#522),#524,.F.);
#99=COLOUR_RGB($,0.188235294117647,0.188235294117647,0.188235294117647);
#100=FILL_AREA_STYLE_COLOUR($,#99);
#101=FILL_AREA_STYLE($,(#100));
#102=SURFACE_STYLE_FILL_AREA(#101);
#103=SURFACE_SIDE_STYLE('',(#102));
#104=SURFACE_STYLE_USAGE(.BOTH.,#103);
#105=PRESENTATION_STYLE_ASSIGNMENT((#104));
#106=STYLED_ITEM('',(#105),#98);
#107=ADVANCED_FACE('',(#529),#531,.F.);
#108=COLOUR_RGB($,0.188235294117647,0.188235294117647,0.188235294117647);
#109=FILL_AREA_STYLE_COLOUR($,#108);
#110=FILL_AREA_STYLE($,(#109));
#111=SURFACE_STYLE_FILL_AREA(#110);
#112=SURFACE_SIDE_STYLE('',(#111));
#113=SURFACE_STYLE_USAGE(.BOTH.,#112);
#114=PRESENTATION_STYLE_ASSIGNMENT((#113));
#115=STYLED_ITEM('',(#114),#107);
#116=ADVANCED_FACE('',(#536),#538,.F.);
#117=COLOUR_RGB($,0.188235294117647,0.188235294117647,0.188235294117647);
#118=FILL_AREA_STYLE_COLOUR($,#117);
#119=FILL_AREA_STYLE($,(#118));
#120=SURFACE_STYLE_FILL_AREA(#119);
#121=SURFACE_SIDE_STYLE('',(#120));
#122=SURFACE_STYLE_USAGE(.BOTH.,#121);
#123=PRESENTATION_STYLE_ASSIGNMENT((#122));
#124=STYLED_ITEM('',(#123),#116);
#125=ADVANCED_FACE('',(#543),#545,.F.);
#126=COLOUR_RGB($,0.188235294117647,0.188235294117647,0.188235294117647);
#127=FILL_AREA_STYLE_COLOUR($,#126);
#128=FILL_AREA_STYLE($,(#127));
#129=SURFACE_STYLE_FILL_AREA(#128);
#130=SURFACE_SIDE_STYLE('',(#129));
#131=SURFACE_STYLE_USAGE(.BOTH.,#130);
#132=PRESENTATION_STYLE_ASSIGNMENT((#131));
#133=STYLED_ITEM('',(#132),#125);
#134=ADVANCED_FACE('',(#550),#552,.F.);
#135=COLOUR_RGB($,0.188235294117647,0.188235294117647,0.188235294117647);
#136=FILL_AREA_STYLE_COLOUR($,#135);
#137=FILL_AREA_STYLE($,(#136));
#138=SURFACE_STYLE_FILL_AREA(#137);
#139=SURFACE_SIDE_STYLE('',(#138));
#140=SURFACE_STYLE_USAGE(.BOTH.,#139);
#141=PRESENTATION_STYLE_ASSIGNMENT((#140));
#142=STYLED_ITEM('',(#141),#134);
#143=ADVANCED_FACE('',(#557),#559,.F.);
#144=COLOUR_RGB($,0.188235294117647,0.188235294117647,0.188235294117647);
#145=FILL_AREA_STYLE_COLOUR($,#144);
#146=FILL_AREA_STYLE($,(#145));
#147=SURFACE_STYLE_FILL_AREA(#146);
#148=SURFACE_SIDE_STYLE('',(#147));
#149=SURFACE_STYLE_USAGE(.BOTH.,#148);
#150=PRESENTATION_STYLE_ASSIGNMENT((#149));
#151=STYLED_ITEM('',(#150),#143);
#152=ADVANCED_FACE('',(#564),#566,.T.);
#153=COLOUR_RGB($,0.188235294117647,0.188235294117647,0.188235294117647);
#154=FILL_AREA_STYLE_COLOUR($,#153);
#155=FILL_AREA_STYLE($,(#154));
#156=SURFACE_STYLE_FILL_AREA(#155);
#157=SURFACE_SIDE_STYLE('',(#156));
#158=SURFACE_STYLE_USAGE(.BOTH.,#157);
#159=PRESENTATION_STYLE_ASSIGNMENT((#158));
#160=STYLED_ITEM('',(#159),#152);
#161=ADVANCED_FACE('',(#571),#573,.F.);
#162=COLOUR_RGB($,0.188235294117647,0.188235294117647,0.188235294117647);
#163=FILL_AREA_STYLE_COLOUR($,#162);
#164=FILL_AREA_STYLE($,(#163));
#165=SURFACE_STYLE_FILL_AREA(#164);
#166=SURFACE_SIDE_STYLE('',(#165));
#167=SURFACE_STYLE_USAGE(.BOTH.,#166);
#168=PRESENTATION_STYLE_ASSIGNMENT((#167));
#169=STYLED_ITEM('',(#168),#161);
#170=ADVANCED_FACE('',(#578),#580,.T.);
#171=COLOUR_RGB($,0.188235294117647,0.188235294117647,0.188235294117647);
#172=FILL_AREA_STYLE_COLOUR($,#171);
#173=FILL_AREA_STYLE($,(#172));
#174=SURFACE_STYLE_FILL_AREA(#173);
#175=SURFACE_SIDE_STYLE('',(#174));
#176=SURFACE_STYLE_USAGE(.BOTH.,#175);
#177=PRESENTATION_STYLE_ASSIGNMENT((#176));
#178=STYLED_ITEM('',(#177),#170);
#179=ADVANCED_FACE('',(#585),#587,.T.);
#180=COLOUR_RGB($,0.188235294117647,0.188235294117647,0.188235294117647);
#181=FILL_AREA_STYLE_COLOUR($,#180);
#182=FILL_AREA_STYLE($,(#181));
#183=SURFACE_STYLE_FILL_AREA(#182);
#184=SURFACE_SIDE_STYLE('',(#183));
#185=SURFACE_STYLE_USAGE(.BOTH.,#184);
#186=PRESENTATION_STYLE_ASSIGNMENT((#185));
#187=STYLED_ITEM('',(#186),#179);
#188=ADVANCED_FACE('',(#592),#594,.F.);
#189=COLOUR_RGB($,0.188235294117647,0.188235294117647,0.188235294117647);
#190=FILL_AREA_STYLE_COLOUR($,#189);
#191=FILL_AREA_STYLE($,(#190));
#192=SURFACE_STYLE_FILL_AREA(#191);
#193=SURFACE_SIDE_STYLE('',(#192));
#194=SURFACE_STYLE_USAGE(.BOTH.,#193);
#195=PRESENTATION_STYLE_ASSIGNMENT((#194));
#196=STYLED_ITEM('',(#195),#188);
#197=ADVANCED_FACE('',(#599),#601,.T.);
#198=COLOUR_RGB($,0.188235294117647,0.188235294117647,0.188235294117647);
#199=FILL_AREA_STYLE_COLOUR($,#198);
#200=FILL_AREA_STYLE($,(#199));
#201=SURFACE_STYLE_FILL_AREA(#200);
#202=SURFACE_SIDE_STYLE('',(#201));
#203=SURFACE_STYLE_USAGE(.BOTH.,#202);
#204=PRESENTATION_STYLE_ASSIGNMENT((#203));
#205=STYLED_ITEM('',(#204),#197);
#206=ADVANCED_FACE('',(#606),#608,.T.);
#207=COLOUR_RGB($,1.,0.996078431372549,0.6);
#208=FILL_AREA_STYLE_COLOUR($,#207);
#209=FILL_AREA_STYLE($,(#208));
#210=SURFACE_STYLE_FILL_AREA(#209);
#211=SURFACE_SIDE_STYLE('',(#210));
#212=SURFACE_STYLE_USAGE(.BOTH.,#211);
#213=PRESENTATION_STYLE_ASSIGNMENT((#212));
#214=STYLED_ITEM('',(#213),#206);
#215=ADVANCED_FACE('',(#613),#615,.T.);
#216=COLOUR_RGB($,1.,0.996078431372549,0.6);
#217=FILL_AREA_STYLE_COLOUR($,#216);
#218=FILL_AREA_STYLE($,(#217));
#219=SURFACE_STYLE_FILL_AREA(#218);
#220=SURFACE_SIDE_STYLE('',(#219));
#221=SURFACE_STYLE_USAGE(.BOTH.,#220);
#222=PRESENTATION_STYLE_ASSIGNMENT((#221));
#223=STYLED_ITEM('',(#222),#215);
#224=ADVANCED_FACE('',(#620),#622,.T.);
#225=COLOUR_RGB($,1.,0.996078431372549,0.6);
#226=FILL_AREA_STYLE_COLOUR($,#225);
#227=FILL_AREA_STYLE($,(#226));
#228=SURFACE_STYLE_FILL_AREA(#227);
#229=SURFACE_SIDE_STYLE('',(#228));
#230=SURFACE_STYLE_USAGE(.BOTH.,#229);
#231=PRESENTATION_STYLE_ASSIGNMENT((#230));
#232=STYLED_ITEM('',(#231),#224);
#233=ADVANCED_FACE('',(#627),#629,.F.);
#234=COLOUR_RGB($,1.,0.996078431372549,0.6);
#235=FILL_AREA_STYLE_COLOUR($,#234);
#236=FILL_AREA_STYLE($,(#235));
#237=SURFACE_STYLE_FILL_AREA(#236);
#238=SURFACE_SIDE_STYLE('',(#237));
#239=SURFACE_STYLE_USAGE(.BOTH.,#238);
#240=PRESENTATION_STYLE_ASSIGNMENT((#239));
#241=STYLED_ITEM('',(#240),#233);
#242=ADVANCED_FACE('',(#634,#636),#638,.T.);
#243=COLOUR_RGB($,0.188235294117647,0.188235294117647,0.188235294117647);
#244=FILL_AREA_STYLE_COLOUR($,#243);
#245=FILL_AREA_STYLE($,(#244));
#246=SURFACE_STYLE_FILL_AREA(#245);
#247=SURFACE_SIDE_STYLE('',(#246));
#248=SURFACE_STYLE_USAGE(.BOTH.,#247);
#249=PRESENTATION_STYLE_ASSIGNMENT((#248));
#250=STYLED_ITEM('',(#249),#242);
#251=ADVANCED_FACE('',(#643),#645,.F.);
#252=COLOUR_RGB($,0.188235294117647,0.188235294117647,0.188235294117647);
#253=FILL_AREA_STYLE_COLOUR($,#252);
#254=FILL_AREA_STYLE($,(#253));
#255=SURFACE_STYLE_FILL_AREA(#254);
#256=SURFACE_SIDE_STYLE('',(#255));
#257=SURFACE_STYLE_USAGE(.BOTH.,#256);
#258=PRESENTATION_STYLE_ASSIGNMENT((#257));
#259=STYLED_ITEM('',(#258),#251);
#260=ADVANCED_FACE('',(#650),#652,.T.);
#261=COLOUR_RGB($,0.188235294117647,0.188235294117647,0.188235294117647);
#262=FILL_AREA_STYLE_COLOUR($,#261);
#263=FILL_AREA_STYLE($,(#262));
#264=SURFACE_STYLE_FILL_AREA(#263);
#265=SURFACE_SIDE_STYLE('',(#264));
#266=SURFACE_STYLE_USAGE(.BOTH.,#265);
#267=PRESENTATION_STYLE_ASSIGNMENT((#266));
#268=STYLED_ITEM('',(#267),#260);
#269=ADVANCED_FACE('',(#657),#659,.F.);
#270=COLOUR_RGB($,0.188235294117647,0.188235294117647,0.188235294117647);
#271=FILL_AREA_STYLE_COLOUR($,#270);
#272=FILL_AREA_STYLE($,(#271));
#273=SURFACE_STYLE_FILL_AREA(#272);
#274=SURFACE_SIDE_STYLE('',(#273));
#275=SURFACE_STYLE_USAGE(.BOTH.,#274);
#276=PRESENTATION_STYLE_ASSIGNMENT((#275));
#277=STYLED_ITEM('',(#276),#269);
#278=ADVANCED_FACE('',(#664),#666,.F.);
#279=COLOUR_RGB($,0.188235294117647,0.188235294117647,0.188235294117647);
#280=FILL_AREA_STYLE_COLOUR($,#279);
#281=FILL_AREA_STYLE($,(#280));
#282=SURFACE_STYLE_FILL_AREA(#281);
#283=SURFACE_SIDE_STYLE('',(#282));
#284=SURFACE_STYLE_USAGE(.BOTH.,#283);
#285=PRESENTATION_STYLE_ASSIGNMENT((#284));
#286=STYLED_ITEM('',(#285),#278);
#287=ADVANCED_FACE('',(#671),#673,.T.);
#288=COLOUR_RGB($,0.188235294117647,0.188235294117647,0.188235294117647);
#289=FILL_AREA_STYLE_COLOUR($,#288);
#290=FILL_AREA_STYLE($,(#289));
#291=SURFACE_STYLE_FILL_AREA(#290);
#292=SURFACE_SIDE_STYLE('',(#291));
#293=SURFACE_STYLE_USAGE(.BOTH.,#292);
#294=PRESENTATION_STYLE_ASSIGNMENT((#293));
#295=STYLED_ITEM('',(#294),#287);
#296=ADVANCED_FACE('',(#678),#680,.F.);
#297=COLOUR_RGB($,0.188235294117647,0.188235294117647,0.188235294117647);
#298=FILL_AREA_STYLE_COLOUR($,#297);
#299=FILL_AREA_STYLE($,(#298));
#300=SURFACE_STYLE_FILL_AREA(#299);
#301=SURFACE_SIDE_STYLE('',(#300));
#302=SURFACE_STYLE_USAGE(.BOTH.,#301);
#303=PRESENTATION_STYLE_ASSIGNMENT((#302));
#304=STYLED_ITEM('',(#303),#296);
#305=ADVANCED_FACE('',(#685),#687,.T.);
#306=COLOUR_RGB($,0.188235294117647,0.188235294117647,0.188235294117647);
#307=FILL_AREA_STYLE_COLOUR($,#306);
#308=FILL_AREA_STYLE($,(#307));
#309=SURFACE_STYLE_FILL_AREA(#308);
#310=SURFACE_SIDE_STYLE('',(#309));
#311=SURFACE_STYLE_USAGE(.BOTH.,#310);
#312=PRESENTATION_STYLE_ASSIGNMENT((#311));
#313=STYLED_ITEM('',(#312),#305);
#314=ADVANCED_FACE('',(#692),#694,.F.);
#315=COLOUR_RGB($,0.188235294117647,0.188235294117647,0.188235294117647);
#316=FILL_AREA_STYLE_COLOUR($,#315);
#317=FILL_AREA_STYLE($,(#316));
#318=SURFACE_STYLE_FILL_AREA(#317);
#319=SURFACE_SIDE_STYLE('',(#318));
#320=SURFACE_STYLE_USAGE(.BOTH.,#319);
#321=PRESENTATION_STYLE_ASSIGNMENT((#320));
#322=STYLED_ITEM('',(#321),#314);
#323=ADVANCED_FACE('',(#699),#701,.T.);
#324=COLOUR_RGB($,0.188235294117647,0.188235294117647,0.188235294117647);
#325=FILL_AREA_STYLE_COLOUR($,#324);
#326=FILL_AREA_STYLE($,(#325));
#327=SURFACE_STYLE_FILL_AREA(#326);
#328=SURFACE_SIDE_STYLE('',(#327));
#329=SURFACE_STYLE_USAGE(.BOTH.,#328);
#330=PRESENTATION_STYLE_ASSIGNMENT((#329));
#331=STYLED_ITEM('',(#330),#323);
#332=ADVANCED_FACE('',(#706),#708,.F.);
#333=COLOUR_RGB($,0.188235294117647,0.188235294117647,0.188235294117647);
#334=FILL_AREA_STYLE_COLOUR($,#333);
#335=FILL_AREA_STYLE($,(#334));
#336=SURFACE_STYLE_FILL_AREA(#335);
#337=SURFACE_SIDE_STYLE('',(#336));
#338=SURFACE_STYLE_USAGE(.BOTH.,#337);
#339=PRESENTATION_STYLE_ASSIGNMENT((#338));
#340=STYLED_ITEM('',(#339),#332);
#341=ADVANCED_FACE('',(#713),#715,.T.);
#342=COLOUR_RGB($,1.,0.996078431372549,0.6);
#343=FILL_AREA_STYLE_COLOUR($,#342);
#344=FILL_AREA_STYLE($,(#343));
#345=SURFACE_STYLE_FILL_AREA(#344);
#346=SURFACE_SIDE_STYLE('',(#345));
#347=SURFACE_STYLE_USAGE(.BOTH.,#346);
#348=PRESENTATION_STYLE_ASSIGNMENT((#347));
#349=STYLED_ITEM('',(#348),#341);
#350=ADVANCED_FACE('',(#720),#722,.F.);
#351=COLOUR_RGB($,1.,0.996078431372549,0.6);
#352=FILL_AREA_STYLE_COLOUR($,#351);
#353=FILL_AREA_STYLE($,(#352));
#354=SURFACE_STYLE_FILL_AREA(#353);
#355=SURFACE_SIDE_STYLE('',(#354));
#356=SURFACE_STYLE_USAGE(.BOTH.,#355);
#357=PRESENTATION_STYLE_ASSIGNMENT((#356));
#358=STYLED_ITEM('',(#357),#350);
#359=ADVANCED_FACE('',(#727),#729,.T.);
#360=COLOUR_RGB($,1.,0.996078431372549,0.6);
#361=FILL_AREA_STYLE_COLOUR($,#360);
#362=FILL_AREA_STYLE($,(#361));
#363=SURFACE_STYLE_FILL_AREA(#362);
#364=SURFACE_SIDE_STYLE('',(#363));
#365=SURFACE_STYLE_USAGE(.BOTH.,#364);
#366=PRESENTATION_STYLE_ASSIGNMENT((#365));
#367=STYLED_ITEM('',(#366),#359);
#368=ADVANCED_FACE('',(#734),#736,.F.);
#369=COLOUR_RGB($,1.,0.996078431372549,0.6);
#370=FILL_AREA_STYLE_COLOUR($,#369);
#371=FILL_AREA_STYLE($,(#370));
#372=SURFACE_STYLE_FILL_AREA(#371);
#373=SURFACE_SIDE_STYLE('',(#372));
#374=SURFACE_STYLE_USAGE(.BOTH.,#373);
#375=PRESENTATION_STYLE_ASSIGNMENT((#374));
#376=STYLED_ITEM('',(#375),#368);
#377=ADVANCED_FACE('',(#741),#743,.F.);
#378=COLOUR_RGB($,0.188235294117647,0.188235294117647,0.188235294117647);
#379=FILL_AREA_STYLE_COLOUR($,#378);
#380=FILL_AREA_STYLE($,(#379));
#381=SURFACE_STYLE_FILL_AREA(#380);
#382=SURFACE_SIDE_STYLE('',(#381));
#383=SURFACE_STYLE_USAGE(.BOTH.,#382);
#384=PRESENTATION_STYLE_ASSIGNMENT((#383));
#385=STYLED_ITEM('',(#384),#377);
#386=ADVANCED_FACE('',(#748),#750,.F.);
#387=COLOUR_RGB($,0.188235294117647,0.188235294117647,0.188235294117647);
#388=FILL_AREA_STYLE_COLOUR($,#387);
#389=FILL_AREA_STYLE($,(#388));
#390=SURFACE_STYLE_FILL_AREA(#389);
#391=SURFACE_SIDE_STYLE('',(#390));
#392=SURFACE_STYLE_USAGE(.BOTH.,#391);
#393=PRESENTATION_STYLE_ASSIGNMENT((#392));
#394=STYLED_ITEM('',(#393),#386);
#395=ADVANCED_FACE('',(#755),#757,.T.);
#396=COLOUR_RGB($,1.,0.996078431372549,0.6);
#397=FILL_AREA_STYLE_COLOUR($,#396);
#398=FILL_AREA_STYLE($,(#397));
#399=SURFACE_STYLE_FILL_AREA(#398);
#400=SURFACE_SIDE_STYLE('',(#399));
#401=SURFACE_STYLE_USAGE(.BOTH.,#400);
#402=PRESENTATION_STYLE_ASSIGNMENT((#401));
#403=STYLED_ITEM('',(#402),#395);
#404=ADVANCED_FACE('',(#762),#764,.F.);
#405=COLOUR_RGB($,1.,0.996078431372549,0.6);
#406=FILL_AREA_STYLE_COLOUR($,#405);
#407=FILL_AREA_STYLE($,(#406));
#408=SURFACE_STYLE_FILL_AREA(#407);
#409=SURFACE_SIDE_STYLE('',(#408));
#410=SURFACE_STYLE_USAGE(.BOTH.,#409);
#411=PRESENTATION_STYLE_ASSIGNMENT((#410));
#412=STYLED_ITEM('',(#411),#404);
#413=ADVANCED_FACE('',(#769),#771,.T.);
#414=COLOUR_RGB($,1.,0.996078431372549,0.6);
#415=FILL_AREA_STYLE_COLOUR($,#414);
#416=FILL_AREA_STYLE($,(#415));
#417=SURFACE_STYLE_FILL_AREA(#416);
#418=SURFACE_SIDE_STYLE('',(#417));
#419=SURFACE_STYLE_USAGE(.BOTH.,#418);
#420=PRESENTATION_STYLE_ASSIGNMENT((#419));
#421=STYLED_ITEM('',(#420),#413);
#422=ADVANCED_FACE('',(#776),#778,.T.);
#423=COLOUR_RGB($,1.,0.996078431372549,0.6);
#424=FILL_AREA_STYLE_COLOUR($,#423);
#425=FILL_AREA_STYLE($,(#424));
#426=SURFACE_STYLE_FILL_AREA(#425);
#427=SURFACE_SIDE_STYLE('',(#426));
#428=SURFACE_STYLE_USAGE(.BOTH.,#427);
#429=PRESENTATION_STYLE_ASSIGNMENT((#428));
#430=STYLED_ITEM('',(#429),#422);
#431=ADVANCED_FACE('',(#783),#785,.T.);
#432=COLOUR_RGB($,1.,0.996078431372549,0.6);
#433=FILL_AREA_STYLE_COLOUR($,#432);
#434=FILL_AREA_STYLE($,(#433));
#435=SURFACE_STYLE_FILL_AREA(#434);
#436=SURFACE_SIDE_STYLE('',(#435));
#437=SURFACE_STYLE_USAGE(.BOTH.,#436);
#438=PRESENTATION_STYLE_ASSIGNMENT((#437));
#439=STYLED_ITEM('',(#438),#431);
#440=ADVANCED_FACE('',(#790),#792,.T.);
#441=COLOUR_RGB($,1.,0.996078431372549,0.6);
#442=FILL_AREA_STYLE_COLOUR($,#441);
#443=FILL_AREA_STYLE($,(#442));
#444=SURFACE_STYLE_FILL_AREA(#443);
#445=SURFACE_SIDE_STYLE('',(#444));
#446=SURFACE_STYLE_USAGE(.BOTH.,#445);
#447=PRESENTATION_STYLE_ASSIGNMENT((#446));
#448=STYLED_ITEM('',(#447),#440);
#449=ADVANCED_FACE('',(#797),#799,.F.);
#450=COLOUR_RGB($,1.,0.996078431372549,0.6);
#451=FILL_AREA_STYLE_COLOUR($,#450);
#452=FILL_AREA_STYLE($,(#451));
#453=SURFACE_STYLE_FILL_AREA(#452);
#454=SURFACE_SIDE_STYLE('',(#453));
#455=SURFACE_STYLE_USAGE(.BOTH.,#454);
#456=PRESENTATION_STYLE_ASSIGNMENT((#455));
#457=STYLED_ITEM('',(#456),#449);
#458=ADVANCED_FACE('',(#804),#806,.T.);
#459=COLOUR_RGB($,1.,0.996078431372549,0.6);
#460=FILL_AREA_STYLE_COLOUR($,#459);
#461=FILL_AREA_STYLE($,(#460));
#462=SURFACE_STYLE_FILL_AREA(#461);
#463=SURFACE_SIDE_STYLE('',(#462));
#464=SURFACE_STYLE_USAGE(.BOTH.,#463);
#465=PRESENTATION_STYLE_ASSIGNMENT((#464));
#466=STYLED_ITEM('',(#465),#458);
#467=ADVANCED_FACE('',(#811),#813,.F.);
#468=COLOUR_RGB($,1.,0.996078431372549,0.6);
#469=FILL_AREA_STYLE_COLOUR($,#468);
#470=FILL_AREA_STYLE($,(#469));
#471=SURFACE_STYLE_FILL_AREA(#470);
#472=SURFACE_SIDE_STYLE('',(#471));
#473=SURFACE_STYLE_USAGE(.BOTH.,#472);
#474=PRESENTATION_STYLE_ASSIGNMENT((#473));
#475=STYLED_ITEM('',(#474),#467);
#476=ADVANCED_FACE('',(#818),#820,.T.);
#477=COLOUR_RGB($,1.,0.996078431372549,0.6);
#478=FILL_AREA_STYLE_COLOUR($,#477);
#479=FILL_AREA_STYLE($,(#478));
#480=SURFACE_STYLE_FILL_AREA(#479);
#481=SURFACE_SIDE_STYLE('',(#480));
#482=SURFACE_STYLE_USAGE(.BOTH.,#481);
#483=PRESENTATION_STYLE_ASSIGNMENT((#482));
#484=STYLED_ITEM('',(#483),#476);
#485=FACE_BOUND('',#486,.T.);
#486=EDGE_LOOP('',(#825,#826,#827,#828,#829,#830,#831,#832,#833,#834,#835,#836,#837,
#838,#839,#840));
#487=FACE_BOUND('',#488,.T.);
#488=EDGE_LOOP('',(#841,#842,#843,#844));
#489=PLANE('',#490);
#490=AXIS2_PLACEMENT_3D('',#491,#492,#493);
#491=CARTESIAN_POINT('',(0.826,1.27,0.54));
#492=DIRECTION('',(0.,0.,1.));
#493=DIRECTION('',(-1.,0.,0.));
#494=FACE_BOUND('',#495,.T.);
#495=EDGE_LOOP('',(#845,#846,#847,#848,#849,#850,#851,#852,#853,#854,#855,#856));
#496=PLANE('',#497);
#497=AXIS2_PLACEMENT_3D('',#498,#499,#500);
#498=CARTESIAN_POINT('',(0.762,1.27,0.));
#499=DIRECTION('',(0.,1.,-0.));
#500=DIRECTION('',(-1.,0.,0.));
#501=FACE_BOUND('',#502,.T.);
#502=EDGE_LOOP('',(#857,#858,#859,#860,#861,#862,#863,#864,#865,#866,#867,#868));
#503=PLANE('',#504);
#504=AXIS2_PLACEMENT_3D('',#505,#506,#507);
#505=CARTESIAN_POINT('',(-0.762,-1.27,0.));
#506=DIRECTION('',(0.,-1.,0.));
#507=DIRECTION('',(1.,0.,0.));
#508=FACE_BOUND('',#509,.T.);
#509=EDGE_LOOP('',(#869,#870,#871,#872));
#510=PLANE('',#511);
#511=AXIS2_PLACEMENT_3D('',#512,#513,#514);
#512=CARTESIAN_POINT('',(0.,0.,0.667));
#513=DIRECTION('',(0.,0.,1.));
#514=DIRECTION('',(1.,0.,0.));
#515=FACE_BOUND('',#516,.T.);
#516=EDGE_LOOP('',(#873,#874,#875,#876));
#517=PLANE('',#518);
#518=AXIS2_PLACEMENT_3D('',#519,#520,#521);
#519=CARTESIAN_POINT('',(0.635,-1.27,0.54));
#520=DIRECTION('',(1.,0.,0.));
#521=DIRECTION('',(0.,1.,0.));
#522=FACE_BOUND('',#523,.T.);
#523=EDGE_LOOP('',(#877,#878,#879,#880));
#524=PLANE('',#525);
#525=AXIS2_PLACEMENT_3D('',#526,#527,#528);
#526=CARTESIAN_POINT('',(-0.635,-1.2065,0.54));
#527=DIRECTION('',(-1.,0.,0.));
#528=DIRECTION('',(0.,-1.,0.));
#529=FACE_BOUND('',#530,.T.);
#530=EDGE_LOOP('',(#881,#882,#883,#884));
#531=PLANE('',#532);
#532=AXIS2_PLACEMENT_3D('',#533,#534,#535);
#533=CARTESIAN_POINT('',(0.635,-1.2065,0.54));
#534=DIRECTION('',(0.,1.,-0.));
#535=DIRECTION('',(-1.,0.,0.));
#536=FACE_BOUND('',#537,.T.);
#537=EDGE_LOOP('',(#885,#886,#887,#888));
#538=PLANE('',#539);
#539=AXIS2_PLACEMENT_3D('',#540,#541,#542);
#540=CARTESIAN_POINT('',(0.,0.,0.667));
#541=DIRECTION('',(0.,0.,1.));
#542=DIRECTION('',(1.,0.,0.));
#543=FACE_BOUND('',#544,.T.);
#544=EDGE_LOOP('',(#889,#890,#891,#892));
#545=PLANE('',#546);
#546=AXIS2_PLACEMENT_3D('',#547,#548,#549);
#547=CARTESIAN_POINT('',(0.635,1.2065,0.54));
#548=DIRECTION('',(1.,0.,0.));
#549=DIRECTION('',(0.,1.,0.));
#550=FACE_BOUND('',#551,.T.);
#551=EDGE_LOOP('',(#893,#894,#895,#896));
#552=PLANE('',#553);
#553=AXIS2_PLACEMENT_3D('',#554,#555,#556);
#554=CARTESIAN_POINT('',(-0.635,1.2065,0.54));
#555=DIRECTION('',(0.,-1.,0.));
#556=DIRECTION('',(1.,0.,0.));
#557=FACE_BOUND('',#558,.T.);
#558=EDGE_LOOP('',(#897,#898,#899,#900));
#559=PLANE('',#560);
#560=AXIS2_PLACEMENT_3D('',#561,#562,#563);
#561=CARTESIAN_POINT('',(-0.635,1.27,0.54));
#562=DIRECTION('',(-1.,0.,0.));
#563=DIRECTION('',(0.,-1.,0.));
#564=FACE_BOUND('',#565,.T.);
#565=EDGE_LOOP('',(#901,#902,#903,#904,#905,#906));
#566=PLANE('',#567);
#567=AXIS2_PLACEMENT_3D('',#568,#569,#570);
#568=CARTESIAN_POINT('',(1.27,0.762,0.));
#569=DIRECTION('',(0.707106781186547,0.707106781186547,-0.));
#570=DIRECTION('',(-0.707106781186548,0.707106781186548,0.));
#571=FACE_BOUND('',#572,.T.);
#572=EDGE_LOOP('',(#907,#908,#909,#910));
#573=PLANE('',#574);
#574=AXIS2_PLACEMENT_3D('',#575,#576,#577);
#575=CARTESIAN_POINT('',(0.826,1.27,-1.86636172190056E-016));
#576=DIRECTION('',(1.,0.,-2.05596856412066E-016));
#577=DIRECTION('',(2.05596856412066E-016,0.,1.));
#578=FACE_BOUND('',#579,.T.);
#579=EDGE_LOOP('',(#911,#912,#913,#914,#915,#916));
#580=PLANE('',#581);
#581=AXIS2_PLACEMENT_3D('',#582,#583,#584);
#582=CARTESIAN_POINT('',(0.762,-1.27,0.));
#583=DIRECTION('',(0.707106781186547,-0.707106781186547,0.));
#584=DIRECTION('',(0.707106781186548,0.707106781186548,0.));
#585=FACE_BOUND('',#586,.T.);
#586=EDGE_LOOP('',(#917,#918,#919,#920,#921,#922));
#587=PLANE('',#588);
#588=AXIS2_PLACEMENT_3D('',#589,#590,#591);
#589=CARTESIAN_POINT('',(-1.27,-0.762,0.));
#590=DIRECTION('',(-0.707106781186548,-0.707106781186547,0.));
#591=DIRECTION('',(0.707106781186547,-0.707106781186548,0.));
#592=FACE_BOUND('',#593,.T.);
#593=EDGE_LOOP('',(#923,#924,#925,#926));
#594=PLANE('',#595);
#595=AXIS2_PLACEMENT_3D('',#596,#597,#598);
#596=CARTESIAN_POINT('',(-0.826,1.27,0.54));
#597=DIRECTION('',(-1.,0.,4.11193712824132E-016));
#598=DIRECTION('',(-4.11193712824132E-016,0.,-1.));
#599=FACE_BOUND('',#600,.T.);
#600=EDGE_LOOP('',(#927,#928,#929,#930,#931,#932));
#601=PLANE('',#602);
#602=AXIS2_PLACEMENT_3D('',#603,#604,#605);
#603=CARTESIAN_POINT('',(-0.761999999999996,1.27,0.));
#604=DIRECTION('',(-0.707106781186547,0.707106781186548,0.));
#605=DIRECTION('',(-0.707106781186548,-0.707106781186547,0.));
#606=FACE_BOUND('',#607,.T.);
#607=EDGE_LOOP('',(#933,#934,#935,#936));
#608=PLANE('',#609);
#609=AXIS2_PLACEMENT_3D('',#610,#611,#612);
#610=CARTESIAN_POINT('',(0.32,0.32,8.44));
#611=DIRECTION('',(0.,1.,0.));
#612=DIRECTION('',(0.,0.,-1.));
#613=FACE_BOUND('',#614,.T.);
#614=EDGE_LOOP('',(#937,#938,#939,#940));
#615=PLANE('',#616);
#616=AXIS2_PLACEMENT_3D('',#617,#618,#619);
#617=CARTESIAN_POINT('',(-0.32,0.,0.));
#618=DIRECTION('',(-1.,0.,0.));
#619=DIRECTION('',(0.,0.,-1.));
#620=FACE_BOUND('',#621,.T.);
#621=EDGE_LOOP('',(#941,#942,#943,#944));
#622=PLANE('',#623);
#623=AXIS2_PLACEMENT_3D('',#624,#625,#626);
#624=CARTESIAN_POINT('',(0.32,-0.32,-2.84));
#625=DIRECTION('',(-0.,-1.,-4.92120135028881E-018));
#626=DIRECTION('',(0.,-4.92120135028881E-018,1.));
#627=FACE_BOUND('',#628,.T.);
#628=EDGE_LOOP('',(#945,#946,#947,#948));
#629=PLANE('',#630);
#630=AXIS2_PLACEMENT_3D('',#631,#632,#633);
#631=CARTESIAN_POINT('',(0.32,0.,0.));
#632=DIRECTION('',(-1.,0.,0.));
#633=DIRECTION('',(0.,0.,-1.));
#634=FACE_BOUND('',#635,.T.);
#635=EDGE_LOOP('',(#949,#950,#951,#952,#953,#954,#955,#956,#957,#958,#959,#960,#961,
#962,#963,#964));
#636=FACE_BOUND('',#637,.T.);
#637=EDGE_LOOP('',(#965,#966,#967,#968));
#638=PLANE('',#639);
#639=AXIS2_PLACEMENT_3D('',#640,#641,#642);
#640=CARTESIAN_POINT('',(0.,0.,2.54));
#641=DIRECTION('',(0.,0.,1.));
#642=DIRECTION('',(1.,0.,0.));
#643=FACE_BOUND('',#644,.T.);
#644=EDGE_LOOP('',(#969,#970,#971,#972));
#645=PLANE('',#646);
#646=AXIS2_PLACEMENT_3D('',#647,#648,#649);
#647=CARTESIAN_POINT('',(-0.635,1.27,2.413));
#648=DIRECTION('',(-1.,0.,0.));
#649=DIRECTION('',(0.,-1.,0.));
#650=FACE_BOUND('',#651,.T.);
#651=EDGE_LOOP('',(#973,#974,#975,#976));
#652=PLANE('',#653);
#653=AXIS2_PLACEMENT_3D('',#654,#655,#656);
#654=CARTESIAN_POINT('',(0.,0.,2.413));
#655=DIRECTION('',(0.,0.,1.));
#656=DIRECTION('',(1.,0.,0.));
#657=FACE_BOUND('',#658,.T.);
#658=EDGE_LOOP('',(#977,#978,#979,#980));
#659=PLANE('',#660);
#660=AXIS2_PLACEMENT_3D('',#661,#662,#663);
#661=CARTESIAN_POINT('',(0.635,1.2065,2.413));
#662=DIRECTION('',(1.,0.,0.));
#663=DIRECTION('',(0.,1.,0.));
#664=FACE_BOUND('',#665,.T.);
#665=EDGE_LOOP('',(#981,#982,#983,#984));
#666=PLANE('',#667);
#667=AXIS2_PLACEMENT_3D('',#668,#669,#670);
#668=CARTESIAN_POINT('',(0.635,-1.27,2.413));
#669=DIRECTION('',(1.,0.,0.));
#670=DIRECTION('',(0.,1.,0.));
#671=FACE_BOUND('',#672,.T.);
#672=EDGE_LOOP('',(#985,#986,#987,#988));
#673=PLANE('',#674);
#674=AXIS2_PLACEMENT_3D('',#675,#676,#677);
#675=CARTESIAN_POINT('',(0.,0.,2.413));
#676=DIRECTION('',(0.,0.,1.));
#677=DIRECTION('',(1.,0.,0.));
#678=FACE_BOUND('',#679,.T.);
#679=EDGE_LOOP('',(#989,#990,#991,#992));
#680=PLANE('',#681);
#681=AXIS2_PLACEMENT_3D('',#682,#683,#684);
#682=CARTESIAN_POINT('',(-0.635,-1.2065,2.413));
#683=DIRECTION('',(-1.,0.,0.));
#684=DIRECTION('',(0.,-1.,0.));
#685=FACE_BOUND('',#686,.T.);
#686=EDGE_LOOP('',(#993,#994,#995,#996));
#687=PLANE('',#688);
#688=AXIS2_PLACEMENT_3D('',#689,#690,#691);
#689=CARTESIAN_POINT('',(1.27,-0.762,0.));
#690=DIRECTION('',(1.,0.,0.));
#691=DIRECTION('',(0.,1.,0.));
#692=FACE_BOUND('',#693,.T.);
#693=EDGE_LOOP('',(#997,#998,#999,#1000));
#694=PLANE('',#695);
#695=AXIS2_PLACEMENT_3D('',#696,#697,#698);
#696=CARTESIAN_POINT('',(0.,0.,0.));
#697=DIRECTION('',(0.,0.,1.));
#698=DIRECTION('',(1.,0.,0.));
#699=FACE_BOUND('',#700,.T.);
#700=EDGE_LOOP('',(#1001,#1002,#1003,#1004));
#701=PLANE('',#702);
#702=AXIS2_PLACEMENT_3D('',#703,#704,#705);
#703=CARTESIAN_POINT('',(-1.27,0.762,0.));
#704=DIRECTION('',(-1.,3.05966975290397E-015,0.));
#705=DIRECTION('',(-3.05966975290397E-015,-1.,0.));
#706=FACE_BOUND('',#707,.T.);
#707=EDGE_LOOP('',(#1005,#1006,#1007,#1008));
#708=PLANE('',#709);
#709=AXIS2_PLACEMENT_3D('',#710,#711,#712);
#710=CARTESIAN_POINT('',(0.,0.,0.));
#711=DIRECTION('',(0.,0.,1.));
#712=DIRECTION('',(1.,0.,0.));
#713=FACE_BOUND('',#714,.T.);
#714=EDGE_LOOP('',(#1009,#1010,#1011,#1012));
#715=PLANE('',#716);
#716=AXIS2_PLACEMENT_3D('',#717,#718,#719);
#717=CARTESIAN_POINT('',(0.32,0.32,-2.84));
#718=DIRECTION('',(0.,0.707106781186548,-0.707106781186547));
#719=DIRECTION('',(0.,-0.707106781186547,-0.707106781186548));
#720=FACE_BOUND('',#721,.T.);
#721=EDGE_LOOP('',(#1013,#1014,#1015,#1016));
#722=PLANE('',#723);
#723=AXIS2_PLACEMENT_3D('',#724,#725,#726);
#724=CARTESIAN_POINT('',(-0.32,-0.32,-2.84));
#725=DIRECTION('',(0.707106781186548,-0.,0.707106781186547));
#726=DIRECTION('',(0.707106781186547,0.,-0.707106781186548));
#727=FACE_BOUND('',#728,.T.);
#728=EDGE_LOOP('',(#1017,#1018,#1019,#1020));
#729=PLANE('',#730);
#730=AXIS2_PLACEMENT_3D('',#731,#732,#733);
#731=CARTESIAN_POINT('',(0.32,-0.16,-3.));
#732=DIRECTION('',(-0.,-0.707106781186548,-0.707106781186547));
#733=DIRECTION('',(0.,-0.707106781186547,0.707106781186548));
#734=FACE_BOUND('',#735,.T.);
#735=EDGE_LOOP('',(#1021,#1022,#1023,#1024));
#736=PLANE('',#737);
#737=AXIS2_PLACEMENT_3D('',#738,#739,#740);
#738=CARTESIAN_POINT('',(0.16,-0.32,-3.));
#739=DIRECTION('',(-0.707106781186548,0.,0.707106781186547));
#740=DIRECTION('',(0.707106781186547,0.,0.707106781186548));
#741=FACE_BOUND('',#742,.T.);
#742=EDGE_LOOP('',(#1025,#1026,#1027,#1028));
#743=PLANE('',#744);
#744=AXIS2_PLACEMENT_3D('',#745,#746,#747);
#745=CARTESIAN_POINT('',(0.635,-1.2065,2.413));
#746=DIRECTION('',(0.,1.,-0.));
#747=DIRECTION('',(-1.,0.,0.));
#748=FACE_BOUND('',#749,.T.);
#749=EDGE_LOOP('',(#1029,#1030,#1031,#1032));
#750=PLANE('',#751);
#751=AXIS2_PLACEMENT_3D('',#752,#753,#754);
#752=CARTESIAN_POINT('',(-0.635,1.2065,2.413));
#753=DIRECTION('',(0.,-1.,0.));
#754=DIRECTION('',(1.,0.,0.));
#755=FACE_BOUND('',#756,.T.);
#756=EDGE_LOOP('',(#1033,#1034,#1035,#1036));
#757=PLANE('',#758);
#758=AXIS2_PLACEMENT_3D('',#759,#760,#761);
#759=CARTESIAN_POINT('',(0.32,0.32,8.44));
#760=DIRECTION('',(0.,1.,0.));
#761=DIRECTION('',(0.,0.,-1.));
#762=FACE_BOUND('',#763,.T.);
#763=EDGE_LOOP('',(#1037,#1038,#1039,#1040));
#764=PLANE('',#765);
#765=AXIS2_PLACEMENT_3D('',#766,#767,#768);
#766=CARTESIAN_POINT('',(0.32,0.,0.));
#767=DIRECTION('',(-1.,0.,0.));
#768=DIRECTION('',(0.,0.,-1.));
#769=FACE_BOUND('',#770,.T.);
#770=EDGE_LOOP('',(#1041,#1042,#1043,#1044));
#771=PLANE('',#772);
#772=AXIS2_PLACEMENT_3D('',#773,#774,#775);
#773=CARTESIAN_POINT('',(0.32,-0.32,-2.84));
#774=DIRECTION('',(-0.,-1.,-4.92120135028881E-018));
#775=DIRECTION('',(0.,-4.92120135028881E-018,1.));
#776=FACE_BOUND('',#777,.T.);
#777=EDGE_LOOP('',(#1045,#1046,#1047,#1048));
#778=PLANE('',#779);
#779=AXIS2_PLACEMENT_3D('',#780,#781,#782);
#780=CARTESIAN_POINT('',(-0.32,0.,0.));
#781=DIRECTION('',(-1.,0.,0.));
#782=DIRECTION('',(0.,0.,-1.));
#783=FACE_BOUND('',#784,.T.);
#784=EDGE_LOOP('',(#1049,#1050,#1051,#1052));
#785=PLANE('',#786);
#786=AXIS2_PLACEMENT_3D('',#787,#788,#789);
#787=CARTESIAN_POINT('',(0.32,0.16,-3.));
#788=DIRECTION('',(-0.,-0.,-1.));
#789=DIRECTION('',(0.,-1.,0.));
#790=FACE_BOUND('',#791,.T.);
#791=EDGE_LOOP('',(#1053,#1054,#1055,#1056));
#792=PLANE('',#793);
#793=AXIS2_PLACEMENT_3D('',#794,#795,#796);
#794=CARTESIAN_POINT('',(0.32,0.16,8.6));
#795=DIRECTION('',(0.,0.707106781186548,0.707106781186547));
#796=DIRECTION('',(0.,0.707106781186547,-0.707106781186548));
#797=FACE_BOUND('',#798,.T.);
#798=EDGE_LOOP('',(#1057,#1058,#1059,#1060));
#799=PLANE('',#800);
#800=AXIS2_PLACEMENT_3D('',#801,#802,#803);
#801=CARTESIAN_POINT('',(0.32,-0.32,8.44));
#802=DIRECTION('',(-0.707106781186548,0.,-0.707106781186547));
#803=DIRECTION('',(-0.707106781186547,0.,0.707106781186548));
#804=FACE_BOUND('',#805,.T.);
#805=EDGE_LOOP('',(#1061,#1062,#1063,#1064));
#806=PLANE('',#807);
#807=AXIS2_PLACEMENT_3D('',#808,#809,#810);
#808=CARTESIAN_POINT('',(0.32,-0.32,8.44));
#809=DIRECTION('',(0.,-0.707106781186548,0.707106781186547));
#810=DIRECTION('',(0.,0.707106781186547,0.707106781186548));
#811=FACE_BOUND('',#812,.T.);
#812=EDGE_LOOP('',(#1065,#1066,#1067,#1068));
#813=PLANE('',#814);
#814=AXIS2_PLACEMENT_3D('',#815,#816,#817);
#815=CARTESIAN_POINT('',(-0.160000000000001,-0.32,8.6));
#816=DIRECTION('',(0.707106781186548,0.,-0.707106781186547));
#817=DIRECTION('',(-0.707106781186547,0.,-0.707106781186548));
#818=FACE_BOUND('',#819,.T.);
#819=EDGE_LOOP('',(#1069,#1070,#1071,#1072));
#820=PLANE('',#821);
#821=AXIS2_PLACEMENT_3D('',#822,#823,#824);
#822=CARTESIAN_POINT('',(0.32,-0.16,8.6));
#823=DIRECTION('',(0.,-0.,1.));
#824=DIRECTION('',(0.,1.,0.));
#825=ORIENTED_EDGE('',*,*,#1073,.T.);
#826=ORIENTED_EDGE('',*,*,#1074,.T.);
#827=ORIENTED_EDGE('',*,*,#1075,.T.);
#828=ORIENTED_EDGE('',*,*,#1076,.F.);
#829=ORIENTED_EDGE('',*,*,#1077,.F.);
#830=ORIENTED_EDGE('',*,*,#1078,.T.);
#831=ORIENTED_EDGE('',*,*,#1079,.F.);
#832=ORIENTED_EDGE('',*,*,#1080,.F.);
#833=ORIENTED_EDGE('',*,*,#1081,.T.);
#834=ORIENTED_EDGE('',*,*,#1082,.T.);
#835=ORIENTED_EDGE('',*,*,#1083,.T.);
#836=ORIENTED_EDGE('',*,*,#1084,.F.);
#837=ORIENTED_EDGE('',*,*,#1085,.F.);
#838=ORIENTED_EDGE('',*,*,#1086,.F.);
#839=ORIENTED_EDGE('',*,*,#1087,.F.);
#840=ORIENTED_EDGE('',*,*,#1088,.F.);
#841=ORIENTED_EDGE('',*,*,#1089,.F.);
#842=ORIENTED_EDGE('',*,*,#1090,.F.);
#843=ORIENTED_EDGE('',*,*,#1091,.F.);
#844=ORIENTED_EDGE('',*,*,#1092,.F.);
#845=ORIENTED_EDGE('',*,*,#1093,.T.);
#846=ORIENTED_EDGE('',*,*,#1088,.T.);
#847=ORIENTED_EDGE('',*,*,#1094,.T.);
#848=ORIENTED_EDGE('',*,*,#1095,.F.);
#849=ORIENTED_EDGE('',*,*,#1096,.T.);
#850=ORIENTED_EDGE('',*,*,#1097,.T.);
#851=ORIENTED_EDGE('',*,*,#1098,.T.);
#852=ORIENTED_EDGE('',*,*,#1099,.F.);
#853=ORIENTED_EDGE('',*,*,#1100,.F.);
#854=ORIENTED_EDGE('',*,*,#1076,.T.);
#855=ORIENTED_EDGE('',*,*,#1101,.T.);
#856=ORIENTED_EDGE('',*,*,#1102,.T.);
#857=ORIENTED_EDGE('',*,*,#1103,.T.);
#858=ORIENTED_EDGE('',*,*,#1104,.T.);
#859=ORIENTED_EDGE('',*,*,#1105,.T.);
#860=ORIENTED_EDGE('',*,*,#1080,.T.);
#861=ORIENTED_EDGE('',*,*,#1106,.T.);
#862=ORIENTED_EDGE('',*,*,#1107,.F.);
#863=ORIENTED_EDGE('',*,*,#1108,.T.);
#864=ORIENTED_EDGE('',*,*,#1109,.T.);
#865=ORIENTED_EDGE('',*,*,#1110,.T.);
#866=ORIENTED_EDGE('',*,*,#1111,.F.);
#867=ORIENTED_EDGE('',*,*,#1112,.F.);
#868=ORIENTED_EDGE('',*,*,#1084,.T.);
#869=ORIENTED_EDGE('',*,*,#1104,.F.);
#870=ORIENTED_EDGE('',*,*,#1113,.F.);
#871=ORIENTED_EDGE('',*,*,#1114,.F.);
#872=ORIENTED_EDGE('',*,*,#1115,.F.);
#873=ORIENTED_EDGE('',*,*,#1105,.F.);
#874=ORIENTED_EDGE('',*,*,#1115,.T.);
#875=ORIENTED_EDGE('',*,*,#1116,.F.);
#876=ORIENTED_EDGE('',*,*,#1081,.F.);
#877=ORIENTED_EDGE('',*,*,#1103,.F.);
#878=ORIENTED_EDGE('',*,*,#1083,.F.);
#879=ORIENTED_EDGE('',*,*,#1117,.T.);
#880=ORIENTED_EDGE('',*,*,#1113,.T.);
#881=ORIENTED_EDGE('',*,*,#1082,.F.);
#882=ORIENTED_EDGE('',*,*,#1116,.T.);
#883=ORIENTED_EDGE('',*,*,#1114,.T.);
#884=ORIENTED_EDGE('',*,*,#1117,.F.);
#885=ORIENTED_EDGE('',*,*,#1102,.F.);
#886=ORIENTED_EDGE('',*,*,#1118,.F.);
#887=ORIENTED_EDGE('',*,*,#1119,.F.);
#888=ORIENTED_EDGE('',*,*,#1120,.F.);
#889=ORIENTED_EDGE('',*,*,#1101,.F.);
#890=ORIENTED_EDGE('',*,*,#1075,.F.);
#891=ORIENTED_EDGE('',*,*,#1121,.T.);
#892=ORIENTED_EDGE('',*,*,#1118,.T.);
#893=ORIENTED_EDGE('',*,*,#1074,.F.);
#894=ORIENTED_EDGE('',*,*,#1122,.T.);
#895=ORIENTED_EDGE('',*,*,#1119,.T.);
#896=ORIENTED_EDGE('',*,*,#1121,.F.);
#897=ORIENTED_EDGE('',*,*,#1093,.F.);
#898=ORIENTED_EDGE('',*,*,#1120,.T.);
#899=ORIENTED_EDGE('',*,*,#1122,.F.);
#900=ORIENTED_EDGE('',*,*,#1073,.F.);
#901=ORIENTED_EDGE('',*,*,#1123,.T.);
#902=ORIENTED_EDGE('',*,*,#1077,.T.);
#903=ORIENTED_EDGE('',*,*,#1100,.T.);
#904=ORIENTED_EDGE('',*,*,#1124,.F.);
#905=ORIENTED_EDGE('',*,*,#1125,.F.);
#906=ORIENTED_EDGE('',*,*,#1126,.T.);
#907=ORIENTED_EDGE('',*,*,#1127,.F.);
#908=ORIENTED_EDGE('',*,*,#1128,.F.);
#909=ORIENTED_EDGE('',*,*,#1078,.F.);
#910=ORIENTED_EDGE('',*,*,#1123,.F.);
#911=ORIENTED_EDGE('',*,*,#1128,.T.);
#912=ORIENTED_EDGE('',*,*,#1129,.T.);
#913=ORIENTED_EDGE('',*,*,#1130,.T.);
#914=ORIENTED_EDGE('',*,*,#1131,.F.);
#915=ORIENTED_EDGE('',*,*,#1106,.F.);
#916=ORIENTED_EDGE('',*,*,#1079,.T.);
#917=ORIENTED_EDGE('',*,*,#1085,.T.);
#918=ORIENTED_EDGE('',*,*,#1112,.T.);
#919=ORIENTED_EDGE('',*,*,#1132,.F.);
#920=ORIENTED_EDGE('',*,*,#1133,.F.);
#921=ORIENTED_EDGE('',*,*,#1134,.T.);
#922=ORIENTED_EDGE('',*,*,#1135,.T.);
#923=ORIENTED_EDGE('',*,*,#1136,.F.);
#924=ORIENTED_EDGE('',*,*,#1137,.F.);
#925=ORIENTED_EDGE('',*,*,#1086,.T.);
#926=ORIENTED_EDGE('',*,*,#1135,.F.);
#927=ORIENTED_EDGE('',*,*,#1087,.T.);
#928=ORIENTED_EDGE('',*,*,#1137,.T.);
#929=ORIENTED_EDGE('',*,*,#1138,.T.);
#930=ORIENTED_EDGE('',*,*,#1139,.T.);
#931=ORIENTED_EDGE('',*,*,#1140,.F.);
#932=ORIENTED_EDGE('',*,*,#1094,.F.);
#933=ORIENTED_EDGE('',*,*,#1089,.T.);
#934=ORIENTED_EDGE('',*,*,#1141,.T.);
#935=ORIENTED_EDGE('',*,*,#1142,.T.);
#936=ORIENTED_EDGE('',*,*,#1143,.F.);
#937=ORIENTED_EDGE('',*,*,#1144,.T.);
#938=ORIENTED_EDGE('',*,*,#1145,.T.);
#939=ORIENTED_EDGE('',*,*,#1090,.T.);
#940=ORIENTED_EDGE('',*,*,#1143,.T.);
#941=ORIENTED_EDGE('',*,*,#1091,.T.);
#942=ORIENTED_EDGE('',*,*,#1145,.F.);
#943=ORIENTED_EDGE('',*,*,#1146,.F.);
#944=ORIENTED_EDGE('',*,*,#1147,.T.);
#945=ORIENTED_EDGE('',*,*,#1148,.T.);
#946=ORIENTED_EDGE('',*,*,#1141,.F.);
#947=ORIENTED_EDGE('',*,*,#1092,.T.);
#948=ORIENTED_EDGE('',*,*,#1147,.F.);
#949=ORIENTED_EDGE('',*,*,#1149,.T.);
#950=ORIENTED_EDGE('',*,*,#1095,.T.);
#951=ORIENTED_EDGE('',*,*,#1140,.T.);
#952=ORIENTED_EDGE('',*,*,#1150,.T.);
#953=ORIENTED_EDGE('',*,*,#1132,.T.);
#954=ORIENTED_EDGE('',*,*,#1111,.T.);
#955=ORIENTED_EDGE('',*,*,#1151,.T.);
#956=ORIENTED_EDGE('',*,*,#1152,.T.);
#957=ORIENTED_EDGE('',*,*,#1153,.T.);
#958=ORIENTED_EDGE('',*,*,#1107,.T.);
#959=ORIENTED_EDGE('',*,*,#1131,.T.);
#960=ORIENTED_EDGE('',*,*,#1154,.T.);
#961=ORIENTED_EDGE('',*,*,#1124,.T.);
#962=ORIENTED_EDGE('',*,*,#1099,.T.);
#963=ORIENTED_EDGE('',*,*,#1155,.T.);
#964=ORIENTED_EDGE('',*,*,#1156,.T.);
#965=ORIENTED_EDGE('',*,*,#1157,.F.);
#966=ORIENTED_EDGE('',*,*,#1158,.F.);
#967=ORIENTED_EDGE('',*,*,#1159,.F.);
#968=ORIENTED_EDGE('',*,*,#1160,.F.);
#969=ORIENTED_EDGE('',*,*,#1149,.F.);
#970=ORIENTED_EDGE('',*,*,#1161,.F.);
#971=ORIENTED_EDGE('',*,*,#1162,.F.);
#972=ORIENTED_EDGE('',*,*,#1096,.F.);
#973=ORIENTED_EDGE('',*,*,#1097,.F.);
#974=ORIENTED_EDGE('',*,*,#1162,.T.);
#975=ORIENTED_EDGE('',*,*,#1163,.T.);
#976=ORIENTED_EDGE('',*,*,#1164,.T.);
#977=ORIENTED_EDGE('',*,*,#1155,.F.);
#978=ORIENTED_EDGE('',*,*,#1098,.F.);
#979=ORIENTED_EDGE('',*,*,#1164,.F.);
#980=ORIENTED_EDGE('',*,*,#1165,.T.);
#981=ORIENTED_EDGE('',*,*,#1153,.F.);
#982=ORIENTED_EDGE('',*,*,#1166,.F.);
#983=ORIENTED_EDGE('',*,*,#1167,.F.);
#984=ORIENTED_EDGE('',*,*,#1108,.F.);
#985=ORIENTED_EDGE('',*,*,#1109,.F.);
#986=ORIENTED_EDGE('',*,*,#1167,.T.);
#987=ORIENTED_EDGE('',*,*,#1168,.T.);
#988=ORIENTED_EDGE('',*,*,#1169,.T.);
#989=ORIENTED_EDGE('',*,*,#1151,.F.);
#990=ORIENTED_EDGE('',*,*,#1110,.F.);
#991=ORIENTED_EDGE('',*,*,#1169,.F.);
#992=ORIENTED_EDGE('',*,*,#1170,.T.);
#993=ORIENTED_EDGE('',*,*,#1171,.T.);
#994=ORIENTED_EDGE('',*,*,#1125,.T.);
#995=ORIENTED_EDGE('',*,*,#1154,.F.);
#996=ORIENTED_EDGE('',*,*,#1130,.F.);
#997=ORIENTED_EDGE('',*,*,#1127,.T.);
#998=ORIENTED_EDGE('',*,*,#1126,.F.);
#999=ORIENTED_EDGE('',*,*,#1171,.F.);
#1000=ORIENTED_EDGE('',*,*,#1129,.F.);
#1001=ORIENTED_EDGE('',*,*,#1172,.T.);
#1002=ORIENTED_EDGE('',*,*,#1133,.T.);
#1003=ORIENTED_EDGE('',*,*,#1150,.F.);
#1004=ORIENTED_EDGE('',*,*,#1139,.F.);
#1005=ORIENTED_EDGE('',*,*,#1136,.T.);
#1006=ORIENTED_EDGE('',*,*,#1134,.F.);
#1007=ORIENTED_EDGE('',*,*,#1172,.F.);
#1008=ORIENTED_EDGE('',*,*,#1138,.F.);
#1009=ORIENTED_EDGE('',*,*,#1173,.T.);
#1010=ORIENTED_EDGE('',*,*,#1142,.F.);
#1011=ORIENTED_EDGE('',*,*,#1174,.T.);
#1012=ORIENTED_EDGE('',*,*,#1175,.T.);
#1013=ORIENTED_EDGE('',*,*,#1144,.F.);
#1014=ORIENTED_EDGE('',*,*,#1173,.F.);
#1015=ORIENTED_EDGE('',*,*,#1176,.F.);
#1016=ORIENTED_EDGE('',*,*,#1177,.F.);
#1017=ORIENTED_EDGE('',*,*,#1177,.T.);
#1018=ORIENTED_EDGE('',*,*,#1178,.F.);
#1019=ORIENTED_EDGE('',*,*,#1179,.T.);
#1020=ORIENTED_EDGE('',*,*,#1146,.T.);
#1021=ORIENTED_EDGE('',*,*,#1148,.F.);
#1022=ORIENTED_EDGE('',*,*,#1179,.F.);
#1023=ORIENTED_EDGE('',*,*,#1180,.F.);
#1024=ORIENTED_EDGE('',*,*,#1174,.F.);
#1025=ORIENTED_EDGE('',*,*,#1152,.F.);
#1026=ORIENTED_EDGE('',*,*,#1170,.F.);
#1027=ORIENTED_EDGE('',*,*,#1168,.F.);
#1028=ORIENTED_EDGE('',*,*,#1166,.T.);
#1029=ORIENTED_EDGE('',*,*,#1156,.F.);
#1030=ORIENTED_EDGE('',*,*,#1165,.F.);
#1031=ORIENTED_EDGE('',*,*,#1163,.F.);
#1032=ORIENTED_EDGE('',*,*,#1161,.T.);
#1033=ORIENTED_EDGE('',*,*,#1157,.T.);
#1034=ORIENTED_EDGE('',*,*,#1181,.F.);
#1035=ORIENTED_EDGE('',*,*,#1182,.F.);
#1036=ORIENTED_EDGE('',*,*,#1183,.T.);
#1037=ORIENTED_EDGE('',*,*,#1184,.T.);
#1038=ORIENTED_EDGE('',*,*,#1185,.F.);
#1039=ORIENTED_EDGE('',*,*,#1158,.T.);
#1040=ORIENTED_EDGE('',*,*,#1183,.F.);
#1041=ORIENTED_EDGE('',*,*,#1159,.T.);
#1042=ORIENTED_EDGE('',*,*,#1185,.T.);
#1043=ORIENTED_EDGE('',*,*,#1186,.T.);
#1044=ORIENTED_EDGE('',*,*,#1187,.F.);
#1045=ORIENTED_EDGE('',*,*,#1188,.T.);
#1046=ORIENTED_EDGE('',*,*,#1181,.T.);
#1047=ORIENTED_EDGE('',*,*,#1160,.T.);
#1048=ORIENTED_EDGE('',*,*,#1187,.T.);
#1049=ORIENTED_EDGE('',*,*,#1176,.T.);
#1050=ORIENTED_EDGE('',*,*,#1175,.F.);
#1051=ORIENTED_EDGE('',*,*,#1180,.T.);
#1052=ORIENTED_EDGE('',*,*,#1178,.T.);
#1053=ORIENTED_EDGE('',*,*,#1189,.T.);
#1054=ORIENTED_EDGE('',*,*,#1190,.F.);
#1055=ORIENTED_EDGE('',*,*,#1191,.T.);
#1056=ORIENTED_EDGE('',*,*,#1182,.T.);
#1057=ORIENTED_EDGE('',*,*,#1184,.F.);
#1058=ORIENTED_EDGE('',*,*,#1191,.F.);
#1059=ORIENTED_EDGE('',*,*,#1192,.F.);
#1060=ORIENTED_EDGE('',*,*,#1193,.F.);
#1061=ORIENTED_EDGE('',*,*,#1194,.T.);
#1062=ORIENTED_EDGE('',*,*,#1186,.F.);
#1063=ORIENTED_EDGE('',*,*,#1193,.T.);
#1064=ORIENTED_EDGE('',*,*,#1195,.T.);
#1065=ORIENTED_EDGE('',*,*,#1188,.F.);
#1066=ORIENTED_EDGE('',*,*,#1194,.F.);
#1067=ORIENTED_EDGE('',*,*,#1196,.F.);
#1068=ORIENTED_EDGE('',*,*,#1189,.F.);
#1069=ORIENTED_EDGE('',*,*,#1196,.T.);
#1070=ORIENTED_EDGE('',*,*,#1195,.F.);
#1071=ORIENTED_EDGE('',*,*,#1192,.T.);
#1072=ORIENTED_EDGE('',*,*,#1190,.T.);
#1073=EDGE_CURVE('',#1197,#1198,#1199,.T.);
#1074=EDGE_CURVE('',#1198,#1200,#1201,.T.);
#1075=EDGE_CURVE('',#1200,#1202,#1203,.T.);
#1076=EDGE_CURVE('',#1204,#1202,#1205,.F.);
#1077=EDGE_CURVE('',#1206,#1204,#1207,.F.);
#1078=EDGE_CURVE('',#1206,#1208,#1209,.T.);
#1079=EDGE_CURVE('',#1210,#1208,#1211,.F.);
#1080=EDGE_CURVE('',#1212,#1210,#1213,.F.);
#1081=EDGE_CURVE('',#1212,#1214,#1215,.T.);
#1082=EDGE_CURVE('',#1214,#1216,#1217,.T.);
#1083=EDGE_CURVE('',#1216,#1218,#1219,.T.);
#1084=EDGE_CURVE('',#1220,#1218,#1221,.F.);
#1085=EDGE_CURVE('',#1222,#1220,#1223,.F.);
#1086=EDGE_CURVE('',#1224,#1222,#1225,.T.);
#1087=EDGE_CURVE('',#1226,#1224,#1227,.F.);
#1088=EDGE_CURVE('',#1197,#1226,#1228,.F.);
#1089=EDGE_CURVE('',#1229,#1230,#1231,.F.);
#1090=EDGE_CURVE('',#1232,#1229,#1233,.F.);
#1091=EDGE_CURVE('',#1234,#1232,#1235,.F.);
#1092=EDGE_CURVE('',#1230,#1234,#1236,.T.);
#1093=EDGE_CURVE('',#1237,#1197,#1238,.F.);
#1094=EDGE_CURVE('',#1226,#1239,#1240,.T.);
#1095=EDGE_CURVE('',#1241,#1239,#1242,.T.);
#1096=EDGE_CURVE('',#1241,#1243,#1244,.F.);
#1097=EDGE_CURVE('',#1243,#1245,#1246,.T.);
#1098=EDGE_CURVE('',#1245,#1247,#1248,.F.);
#1099=EDGE_CURVE('',#1249,#1247,#1250,.T.);
#1100=EDGE_CURVE('',#1204,#1249,#1251,.T.);
#1101=EDGE_CURVE('',#1202,#1252,#1253,.F.);
#1102=EDGE_CURVE('',#1252,#1237,#1254,.F.);
#1103=EDGE_CURVE('',#1218,#1255,#1256,.F.);
#1104=EDGE_CURVE('',#1255,#1257,#1258,.F.);
#1105=EDGE_CURVE('',#1257,#1212,#1259,.F.);
#1106=EDGE_CURVE('',#1210,#1260,#1261,.T.);
#1107=EDGE_CURVE('',#1262,#1260,#1263,.T.);
#1108=EDGE_CURVE('',#1262,#1264,#1265,.F.);
#1109=EDGE_CURVE('',#1264,#1266,#1267,.T.);
#1110=EDGE_CURVE('',#1266,#1268,#1269,.F.);
#1111=EDGE_CURVE('',#1270,#1268,#1271,.T.);
#1112=EDGE_CURVE('',#1220,#1270,#1272,.T.);
#1113=EDGE_CURVE('',#1273,#1255,#1274,.T.);
#1114=EDGE_CURVE('',#1275,#1273,#1276,.T.);
#1115=EDGE_CURVE('',#1257,#1275,#1277,.T.);
#1116=EDGE_CURVE('',#1214,#1275,#1278,.T.);
#1117=EDGE_CURVE('',#1216,#1273,#1279,.T.);
#1118=EDGE_CURVE('',#1280,#1252,#1281,.T.);
#1119=EDGE_CURVE('',#1282,#1280,#1283,.T.);
#1120=EDGE_CURVE('',#1237,#1282,#1284,.T.);
#1121=EDGE_CURVE('',#1200,#1280,#1285,.T.);
#1122=EDGE_CURVE('',#1198,#1282,#1286,.T.);
#1123=EDGE_CURVE('',#1287,#1206,#1288,.F.);
#1124=EDGE_CURVE('',#1289,#1249,#1290,.T.);
#1125=EDGE_CURVE('',#1291,#1289,#1292,.T.);
#1126=EDGE_CURVE('',#1291,#1287,#1293,.T.);
#1127=EDGE_CURVE('',#1294,#1287,#1295,.T.);
#1128=EDGE_CURVE('',#1208,#1294,#1296,.F.);
#1129=EDGE_CURVE('',#1294,#1297,#1298,.T.);
#1130=EDGE_CURVE('',#1297,#1299,#1300,.T.);
#1131=EDGE_CURVE('',#1260,#1299,#1301,.T.);
#1132=EDGE_CURVE('',#1302,#1270,#1303,.T.);
#1133=EDGE_CURVE('',#1304,#1302,#1305,.T.);
#1134=EDGE_CURVE('',#1304,#1306,#1307,.T.);
#1135=EDGE_CURVE('',#1306,#1222,#1308,.F.);
#1136=EDGE_CURVE('',#1309,#1306,#1310,.T.);
#1137=EDGE_CURVE('',#1224,#1309,#1311,.F.);
#1138=EDGE_CURVE('',#1309,#1312,#1313,.T.);
#1139=EDGE_CURVE('',#1312,#1314,#1315,.T.);
#1140=EDGE_CURVE('',#1239,#1314,#1316,.T.);
#1141=EDGE_CURVE('',#1230,#1317,#1318,.T.);
#1142=EDGE_CURVE('',#1317,#1319,#1320,.T.);
#1143=EDGE_CURVE('',#1229,#1319,#1321,.T.);
#1144=EDGE_CURVE('',#1319,#1322,#1323,.F.);
#1145=EDGE_CURVE('',#1322,#1232,#1324,.T.);
#1146=EDGE_CURVE('',#1325,#1322,#1326,.T.);
#1147=EDGE_CURVE('',#1325,#1234,#1327,.T.);
#1148=EDGE_CURVE('',#1325,#1317,#1328,.T.);
#1149=EDGE_CURVE('',#1329,#1241,#1330,.F.);
#1150=EDGE_CURVE('',#1314,#1302,#1331,.T.);
#1151=EDGE_CURVE('',#1268,#1332,#1333,.F.);
#1152=EDGE_CURVE('',#1332,#1334,#1335,.F.);
#1153=EDGE_CURVE('',#1334,#1262,#1336,.F.);
#1154=EDGE_CURVE('',#1299,#1289,#1337,.T.);
#1155=EDGE_CURVE('',#1247,#1338,#1339,.F.);
#1156=EDGE_CURVE('',#1338,#1329,#1340,.F.);
#1157=EDGE_CURVE('',#1341,#1342,#1343,.T.);
#1158=EDGE_CURVE('',#1344,#1341,#1345,.F.);
#1159=EDGE_CURVE('',#1346,#1344,#1347,.T.);
#1160=EDGE_CURVE('',#1342,#1346,#1348,.T.);
#1161=EDGE_CURVE('',#1349,#1329,#1350,.T.);
#1162=EDGE_CURVE('',#1243,#1349,#1351,.T.);
#1163=EDGE_CURVE('',#1349,#1352,#1353,.T.);
#1164=EDGE_CURVE('',#1352,#1245,#1354,.T.);
#1165=EDGE_CURVE('',#1352,#1338,#1355,.T.);
#1166=EDGE_CURVE('',#1356,#1334,#1357,.T.);
#1167=EDGE_CURVE('',#1264,#1356,#1358,.T.);
#1168=EDGE_CURVE('',#1356,#1359,#1360,.T.);
#1169=EDGE_CURVE('',#1359,#1266,#1361,.T.);
#1170=EDGE_CURVE('',#1359,#1332,#1362,.T.);
#1171=EDGE_CURVE('',#1297,#1291,#1363,.T.);
#1172=EDGE_CURVE('',#1312,#1304,#1364,.T.);
#1173=EDGE_CURVE('',#1365,#1319,#1366,.F.);
#1174=EDGE_CURVE('',#1317,#1367,#1368,.F.);
#1175=EDGE_CURVE('',#1367,#1365,#1369,.T.);
#1176=EDGE_CURVE('',#1370,#1365,#1371,.F.);
#1177=EDGE_CURVE('',#1322,#1370,#1372,.F.);
#1178=EDGE_CURVE('',#1373,#1370,#1374,.T.);
#1179=EDGE_CURVE('',#1373,#1325,#1375,.F.);
#1180=EDGE_CURVE('',#1367,#1373,#1376,.F.);
#1181=EDGE_CURVE('',#1377,#1342,#1378,.T.);
#1182=EDGE_CURVE('',#1379,#1377,#1380,.T.);
#1183=EDGE_CURVE('',#1379,#1341,#1381,.T.);
#1184=EDGE_CURVE('',#1379,#1382,#1383,.T.);
#1185=EDGE_CURVE('',#1344,#1382,#1384,.T.);
#1186=EDGE_CURVE('',#1382,#1385,#1386,.T.);
#1187=EDGE_CURVE('',#1346,#1385,#1387,.T.);
#1188=EDGE_CURVE('',#1385,#1377,#1388,.F.);
#1189=EDGE_CURVE('',#1377,#1389,#1390,.F.);
#1190=EDGE_CURVE('',#1391,#1389,#1392,.T.);
#1191=EDGE_CURVE('',#1391,#1379,#1393,.F.);
#1192=EDGE_CURVE('',#1394,#1391,#1395,.F.);
#1193=EDGE_CURVE('',#1382,#1394,#1396,.F.);
#1194=EDGE_CURVE('',#1397,#1385,#1398,.F.);
#1195=EDGE_CURVE('',#1394,#1397,#1399,.T.);
#1196=EDGE_CURVE('',#1389,#1397,#1400,.F.);
#1197=VERTEX_POINT('',#1401);
#1198=VERTEX_POINT('',#1402);
#1199=LINE('',#1403,#1404);
#1200=VERTEX_POINT('',#1406);
#1201=LINE('',#1407,#1408);
#1202=VERTEX_POINT('',#1410);
#1203=LINE('',#1411,#1412);
#1204=VERTEX_POINT('',#1414);
#1205=LINE('',#1415,#1416);
#1206=VERTEX_POINT('',#1418);
#1207=LINE('',#1419,#1420);
#1208=VERTEX_POINT('',#1422);
#1209=LINE('',#1423,#1424);
#1210=VERTEX_POINT('',#1426);
#1211=LINE('',#1427,#1428);
#1212=VERTEX_POINT('',#1430);
#1213=LINE('',#1431,#1432);
#1214=VERTEX_POINT('',#1434);
#1215=LINE('',#1435,#1436);
#1216=VERTEX_POINT('',#1438);
#1217=LINE('',#1439,#1440);
#1218=VERTEX_POINT('',#1442);
#1219=LINE('',#1443,#1444);
#1220=VERTEX_POINT('',#1446);
#1221=LINE('',#1447,#1448);
#1222=VERTEX_POINT('',#1450);
#1223=LINE('',#1451,#1452);
#1224=VERTEX_POINT('',#1454);
#1225=LINE('',#1455,#1456);
#1226=VERTEX_POINT('',#1458);
#1227=LINE('',#1459,#1460);
#1228=LINE('',#1462,#1463);
#1229=VERTEX_POINT('',#1465);
#1230=VERTEX_POINT('',#1466);
#1231=LINE('',#1467,#1468);
#1232=VERTEX_POINT('',#1470);
#1233=LINE('',#1471,#1472);
#1234=VERTEX_POINT('',#1474);
#1235=LINE('',#1475,#1476);
#1236=LINE('',#1478,#1479);
#1237=VERTEX_POINT('',#1481);
#1238=LINE('',#1482,#1483);
#1239=VERTEX_POINT('',#1485);
#1240=LINE('',#1486,#1487);
#1241=VERTEX_POINT('',#1489);
#1242=LINE('',#1490,#1491);
#1243=VERTEX_POINT('',#1493);
#1244=LINE('',#1494,#1495);
#1245=VERTEX_POINT('',#1497);
#1246=LINE('',#1498,#1499);
#1247=VERTEX_POINT('',#1501);
#1248=LINE('',#1502,#1503);
#1249=VERTEX_POINT('',#1505);
#1250=LINE('',#1506,#1507);
#1251=LINE('',#1509,#1510);
#1252=VERTEX_POINT('',#1512);
#1253=LINE('',#1513,#1514);
#1254=LINE('',#1516,#1517);
#1255=VERTEX_POINT('',#1519);
#1256=LINE('',#1520,#1521);
#1257=VERTEX_POINT('',#1523);
#1258=LINE('',#1524,#1525);
#1259=LINE('',#1527,#1528);
#1260=VERTEX_POINT('',#1530);
#1261=LINE('',#1531,#1532);
#1262=VERTEX_POINT('',#1534);
#1263=LINE('',#1535,#1536);
#1264=VERTEX_POINT('',#1538);
#1265=LINE('',#1539,#1540);
#1266=VERTEX_POINT('',#1542);
#1267=LINE('',#1543,#1544);
#1268=VERTEX_POINT('',#1546);
#1269=LINE('',#1547,#1548);
#1270=VERTEX_POINT('',#1550);
#1271=LINE('',#1551,#1552);
#1272=LINE('',#1554,#1555);
#1273=VERTEX_POINT('',#1557);
#1274=LINE('',#1558,#1559);
#1275=VERTEX_POINT('',#1561);
#1276=LINE('',#1562,#1563);
#1277=LINE('',#1565,#1566);
#1278=LINE('',#1568,#1569);
#1279=LINE('',#1571,#1572);
#1280=VERTEX_POINT('',#1574);
#1281=LINE('',#1575,#1576);
#1282=VERTEX_POINT('',#1578);
#1283=LINE('',#1579,#1580);
#1284=LINE('',#1582,#1583);
#1285=LINE('',#1585,#1586);
#1286=LINE('',#1588,#1589);
#1287=VERTEX_POINT('',#1591);
#1288=LINE('',#1592,#1593);
#1289=VERTEX_POINT('',#1595);
#1290=LINE('',#1596,#1597);
#1291=VERTEX_POINT('',#1599);
#1292=LINE('',#1600,#1601);
#1293=LINE('',#1603,#1604);
#1294=VERTEX_POINT('',#1606);
#1295=LINE('',#1607,#1608);
#1296=LINE('',#1610,#1611);
#1297=VERTEX_POINT('',#1613);
#1298=LINE('',#1614,#1615);
#1299=VERTEX_POINT('',#1617);
#1300=LINE('',#1618,#1619);
#1301=LINE('',#1621,#1622);
#1302=VERTEX_POINT('',#1624);
#1303=LINE('',#1625,#1626);
#1304=VERTEX_POINT('',#1628);
#1305=LINE('',#1629,#1630);
#1306=VERTEX_POINT('',#1632);
#1307=LINE('',#1633,#1634);
#1308=LINE('',#1636,#1637);
#1309=VERTEX_POINT('',#1639);
#1310=LINE('',#1640,#1641);
#1311=LINE('',#1643,#1644);
#1312=VERTEX_POINT('',#1646);
#1313=LINE('',#1647,#1648);
#1314=VERTEX_POINT('',#1650);
#1315=LINE('',#1651,#1652);
#1316=LINE('',#1654,#1655);
#1317=VERTEX_POINT('',#1657);
#1318=LINE('',#1658,#1659);
#1319=VERTEX_POINT('',#1661);
#1320=LINE('',#1662,#1663);
#1321=LINE('',#1665,#1666);
#1322=VERTEX_POINT('',#1668);
#1323=LINE('',#1669,#1670);
#1324=LINE('',#1672,#1673);
#1325=VERTEX_POINT('',#1675);
#1326=LINE('',#1676,#1677);
#1327=LINE('',#1679,#1680);
#1328=LINE('',#1682,#1683);
#1329=VERTEX_POINT('',#1685);
#1330=LINE('',#1686,#1687);
#1331=LINE('',#1689,#1690);
#1332=VERTEX_POINT('',#1692);
#1333=LINE('',#1693,#1694);
#1334=VERTEX_POINT('',#1696);
#1335=LINE('',#1697,#1698);
#1336=LINE('',#1700,#1701);
#1337=LINE('',#1703,#1704);
#1338=VERTEX_POINT('',#1706);
#1339=LINE('',#1707,#1708);
#1340=LINE('',#1710,#1711);
#1341=VERTEX_POINT('',#1713);
#1342=VERTEX_POINT('',#1714);
#1343=LINE('',#1715,#1716);
#1344=VERTEX_POINT('',#1718);
#1345=LINE('',#1719,#1720);
#1346=VERTEX_POINT('',#1722);
#1347=LINE('',#1723,#1724);
#1348=LINE('',#1726,#1727);
#1349=VERTEX_POINT('',#1729);
#1350=LINE('',#1730,#1731);
#1351=LINE('',#1733,#1734);
#1352=VERTEX_POINT('',#1736);
#1353=LINE('',#1737,#1738);
#1354=LINE('',#1740,#1741);
#1355=LINE('',#1743,#1744);
#1356=VERTEX_POINT('',#1746);
#1357=LINE('',#1747,#1748);
#1358=LINE('',#1750,#1751);
#1359=VERTEX_POINT('',#1753);
#1360=LINE('',#1754,#1755);
#1361=LINE('',#1757,#1758);
#1362=LINE('',#1760,#1761);
#1363=LINE('',#1763,#1764);
#1364=LINE('',#1766,#1767);
#1365=VERTEX_POINT('',#1769);
#1366=LINE('',#1770,#1771);
#1367=VERTEX_POINT('',#1773);
#1368=LINE('',#1774,#1775);
#1369=LINE('',#1777,#1778);
#1370=VERTEX_POINT('',#1780);
#1371=LINE('',#1781,#1782);
#1372=LINE('',#1784,#1785);
#1373=VERTEX_POINT('',#1787);
#1374=LINE('',#1788,#1789);
#1375=LINE('',#1791,#1792);
#1376=LINE('',#1794,#1795);
#1377=VERTEX_POINT('',#1797);
#1378=LINE('',#1798,#1799);
#1379=VERTEX_POINT('',#1801);
#1380=LINE('',#1802,#1803);
#1381=LINE('',#1805,#1806);
#1382=VERTEX_POINT('',#1808);
#1383=LINE('',#1809,#1810);
#1384=LINE('',#1812,#1813);
#1385=VERTEX_POINT('',#1815);
#1386=LINE('',#1816,#1817);
#1387=LINE('',#1819,#1820);
#1388=LINE('',#1822,#1823);
#1389=VERTEX_POINT('',#1825);
#1390=LINE('',#1826,#1827);
#1391=VERTEX_POINT('',#1829);
#1392=LINE('',#1830,#1831);
#1393=LINE('',#1833,#1834);
#1394=VERTEX_POINT('',#1836);
#1395=LINE('',#1837,#1838);
#1396=LINE('',#1840,#1841);
#1397=VERTEX_POINT('',#1843);
#1398=LINE('',#1844,#1845);
#1399=LINE('',#1847,#1848);
#1400=LINE('',#1850,#1851);
#1401=CARTESIAN_POINT('',(-0.635,1.27,0.54));
#1402=CARTESIAN_POINT('',(-0.635,1.2065,0.54));
#1403=CARTESIAN_POINT('',(-0.634999999999999,1.27,0.54));
#1404=VECTOR('',#1405,1.);
#1405=DIRECTION('',(0.,-1.,0.));
#1406=CARTESIAN_POINT('',(0.635,1.2065,0.54));
#1407=CARTESIAN_POINT('',(-0.634999999999999,1.2065,0.54));
#1408=VECTOR('',#1409,1.);
#1409=DIRECTION('',(1.,0.,0.));
#1410=CARTESIAN_POINT('',(0.635,1.27,0.54));
#1411=CARTESIAN_POINT('',(0.635,1.2065,0.54));
#1412=VECTOR('',#1413,1.);
#1413=DIRECTION('',(0.,1.,0.));
#1414=CARTESIAN_POINT('',(0.762,1.27,0.54));
#1415=CARTESIAN_POINT('',(0.635,1.27,0.54));
#1416=VECTOR('',#1417,1.);
#1417=DIRECTION('',(1.,0.,0.));
#1418=CARTESIAN_POINT('',(0.826,1.206,0.54));
#1419=CARTESIAN_POINT('',(0.762,1.27,0.54));
#1420=VECTOR('',#1421,1.);
#1421=DIRECTION('',(0.707106781186548,-0.707106781186548,0.));
#1422=CARTESIAN_POINT('',(0.826,-1.206,0.54));
#1423=CARTESIAN_POINT('',(0.826,1.206,0.54));
#1424=VECTOR('',#1425,1.);
#1425=DIRECTION('',(0.,-1.,4.60291469579252E-017));
#1426=CARTESIAN_POINT('',(0.762,-1.27,0.54));
#1427=CARTESIAN_POINT('',(0.826,-1.206,0.54));
#1428=VECTOR('',#1429,1.);
#1429=DIRECTION('',(-0.707106781186547,-0.707106781186547,0.));
#1430=CARTESIAN_POINT('',(0.635,-1.27,0.54));
#1431=CARTESIAN_POINT('',(0.761999999999999,-1.27,0.54));
#1432=VECTOR('',#1433,1.);
#1433=DIRECTION('',(-1.,0.,0.));
#1434=CARTESIAN_POINT('',(0.635,-1.2065,0.54));
#1435=CARTESIAN_POINT('',(0.635,-1.27,0.54));
#1436=VECTOR('',#1437,1.);
#1437=DIRECTION('',(0.,1.,0.));
#1438=CARTESIAN_POINT('',(-0.635,-1.2065,0.54));
#1439=CARTESIAN_POINT('',(0.635,-1.2065,0.54));
#1440=VECTOR('',#1441,1.);
#1441=DIRECTION('',(-1.,0.,0.));
#1442=CARTESIAN_POINT('',(-0.635,-1.27,0.54));
#1443=CARTESIAN_POINT('',(-0.634999999999999,-1.2065,0.54));
#1444=VECTOR('',#1445,1.);
#1445=DIRECTION('',(0.,-1.,0.));
#1446=CARTESIAN_POINT('',(-0.762,-1.27,0.54));
#1447=CARTESIAN_POINT('',(-0.635,-1.27,0.54));
#1448=VECTOR('',#1449,1.);
#1449=DIRECTION('',(-1.,0.,0.));
#1450=CARTESIAN_POINT('',(-0.826,-1.206,0.54));
#1451=CARTESIAN_POINT('',(-0.762,-1.27,0.54));
#1452=VECTOR('',#1453,1.);
#1453=DIRECTION('',(-0.707106781186547,0.707106781186548,0.));
#1454=CARTESIAN_POINT('',(-0.826,1.206,0.54));
#1455=CARTESIAN_POINT('',(-0.826,1.206,0.54));
#1456=VECTOR('',#1457,1.);
#1457=DIRECTION('',(9.20582939158507E-017,-1.,0.));
#1458=CARTESIAN_POINT('',(-0.761999999999996,1.27,0.54));
#1459=CARTESIAN_POINT('',(-0.826,1.206,0.54));
#1460=VECTOR('',#1461,1.);
#1461=DIRECTION('',(0.707106781186548,0.707106781186548,0.));
#1462=CARTESIAN_POINT('',(-0.761999999999996,1.27,0.54));
#1463=VECTOR('',#1464,1.);
#1464=DIRECTION('',(1.,0.,0.));
#1465=CARTESIAN_POINT('',(-0.32,0.32,0.54));
#1466=CARTESIAN_POINT('',(0.32,0.32,0.54));
#1467=CARTESIAN_POINT('',(0.32,0.32,0.54));
#1468=VECTOR('',#1469,1.);
#1469=DIRECTION('',(-1.,0.,0.));
#1470=CARTESIAN_POINT('',(-0.32,-0.32,0.54));
#1471=CARTESIAN_POINT('',(-0.32,0.32,0.54));
#1472=VECTOR('',#1473,1.);
#1473=DIRECTION('',(0.,-1.,0.));
#1474=CARTESIAN_POINT('',(0.32,-0.32,0.54));
#1475=CARTESIAN_POINT('',(-0.32,-0.32,0.54));
#1476=VECTOR('',#1477,1.);
#1477=DIRECTION('',(1.,0.,0.));
#1478=CARTESIAN_POINT('',(0.32,0.32,0.54));
#1479=VECTOR('',#1480,1.);
#1480=DIRECTION('',(0.,-1.,0.));
#1481=CARTESIAN_POINT('',(-0.635,1.27,0.667));
#1482=CARTESIAN_POINT('',(-0.635,1.27,0.54));
#1483=VECTOR('',#1484,1.);
#1484=DIRECTION('',(0.,0.,1.));
#1485=CARTESIAN_POINT('',(-0.761999999999998,1.27,2.54));
#1486=CARTESIAN_POINT('',(-0.761999999999996,1.27,0.54));
#1487=VECTOR('',#1488,1.);
#1488=DIRECTION('',(0.,0.,1.));
#1489=CARTESIAN_POINT('',(-0.635,1.27,2.54));
#1490=CARTESIAN_POINT('',(-0.635,1.27,2.54));
#1491=VECTOR('',#1492,1.);
#1492=DIRECTION('',(-1.,0.,0.));
#1493=CARTESIAN_POINT('',(-0.635,1.27,2.413));
#1494=CARTESIAN_POINT('',(-0.635,1.27,2.413));
#1495=VECTOR('',#1496,1.);
#1496=DIRECTION('',(0.,0.,1.));
#1497=CARTESIAN_POINT('',(0.635,1.27,2.413));
#1498=CARTESIAN_POINT('',(-0.635,1.27,2.413));
#1499=VECTOR('',#1500,1.);
#1500=DIRECTION('',(1.,0.,0.));
#1501=CARTESIAN_POINT('',(0.635,1.27,2.54));
#1502=CARTESIAN_POINT('',(0.635,1.27,2.54));
#1503=VECTOR('',#1504,1.);
#1504=DIRECTION('',(0.,0.,-1.));
#1505=CARTESIAN_POINT('',(0.762,1.27,2.54));
#1506=CARTESIAN_POINT('',(0.762,1.27,2.54));
#1507=VECTOR('',#1508,1.);
#1508=DIRECTION('',(-1.,0.,0.));
#1509=CARTESIAN_POINT('',(0.762,1.27,0.54));
#1510=VECTOR('',#1511,1.);
#1511=DIRECTION('',(0.,0.,1.));
#1512=CARTESIAN_POINT('',(0.635,1.27,0.667));
#1513=CARTESIAN_POINT('',(0.635,1.27,0.667));
#1514=VECTOR('',#1515,1.);
#1515=DIRECTION('',(0.,0.,-1.));
#1516=CARTESIAN_POINT('',(-0.635,1.27,0.667));
#1517=VECTOR('',#1518,1.);
#1518=DIRECTION('',(1.,0.,0.));
#1519=CARTESIAN_POINT('',(-0.635,-1.27,0.667));
#1520=CARTESIAN_POINT('',(-0.635,-1.27,0.667));
#1521=VECTOR('',#1522,1.);
#1522=DIRECTION('',(0.,0.,-1.));
#1523=CARTESIAN_POINT('',(0.635,-1.27,0.667));
#1524=CARTESIAN_POINT('',(0.635,-1.27,0.667));
#1525=VECTOR('',#1526,1.);
#1526=DIRECTION('',(-1.,0.,0.));
#1527=CARTESIAN_POINT('',(0.635,-1.27,0.54));
#1528=VECTOR('',#1529,1.);
#1529=DIRECTION('',(0.,0.,1.));
#1530=CARTESIAN_POINT('',(0.762,-1.27,2.54));
#1531=CARTESIAN_POINT('',(0.761999999999999,-1.27,0.54));
#1532=VECTOR('',#1533,1.);
#1533=DIRECTION('',(0.,0.,1.));
#1534=CARTESIAN_POINT('',(0.635,-1.27,2.54));
#1535=CARTESIAN_POINT('',(0.635,-1.27,2.54));
#1536=VECTOR('',#1537,1.);
#1537=DIRECTION('',(1.,0.,0.));
#1538=CARTESIAN_POINT('',(0.635,-1.27,2.413));
#1539=CARTESIAN_POINT('',(0.635,-1.27,2.413));
#1540=VECTOR('',#1541,1.);
#1541=DIRECTION('',(0.,0.,1.));
#1542=CARTESIAN_POINT('',(-0.635,-1.27,2.413));
#1543=CARTESIAN_POINT('',(0.635,-1.27,2.413));
#1544=VECTOR('',#1545,1.);
#1545=DIRECTION('',(-1.,0.,0.));
#1546=CARTESIAN_POINT('',(-0.635,-1.27,2.54));
#1547=CARTESIAN_POINT('',(-0.635,-1.27,2.54));
#1548=VECTOR('',#1549,1.);
#1549=DIRECTION('',(0.,0.,-1.));
#1550=CARTESIAN_POINT('',(-0.762,-1.27,2.54));
#1551=CARTESIAN_POINT('',(-0.762,-1.27,2.54));
#1552=VECTOR('',#1553,1.);
#1553=DIRECTION('',(1.,0.,0.));
#1554=CARTESIAN_POINT('',(-0.762,-1.27,0.54));
#1555=VECTOR('',#1556,1.);
#1556=DIRECTION('',(0.,0.,1.));
#1557=CARTESIAN_POINT('',(-0.635,-1.2065,0.667));
#1558=CARTESIAN_POINT('',(-0.635,-1.2065,0.667));
#1559=VECTOR('',#1560,1.);
#1560=DIRECTION('',(0.,-1.,0.));
#1561=CARTESIAN_POINT('',(0.635,-1.2065,0.667));
#1562=CARTESIAN_POINT('',(0.635,-1.2065,0.667));
#1563=VECTOR('',#1564,1.);
#1564=DIRECTION('',(-1.,0.,0.));
#1565=CARTESIAN_POINT('',(0.635,-1.27,0.667));
#1566=VECTOR('',#1567,1.);
#1567=DIRECTION('',(0.,1.,0.));
#1568=CARTESIAN_POINT('',(0.635,-1.2065,0.54));
#1569=VECTOR('',#1570,1.);
#1570=DIRECTION('',(0.,0.,1.));
#1571=CARTESIAN_POINT('',(-0.634999999999999,-1.2065,0.54));
#1572=VECTOR('',#1573,1.);
#1573=DIRECTION('',(0.,0.,1.));
#1574=CARTESIAN_POINT('',(0.635,1.2065,0.667));
#1575=CARTESIAN_POINT('',(0.635,1.2065,0.667));
#1576=VECTOR('',#1577,1.);
#1577=DIRECTION('',(0.,1.,0.));
#1578=CARTESIAN_POINT('',(-0.635,1.2065,0.667));
#1579=CARTESIAN_POINT('',(-0.635,1.2065,0.667));
#1580=VECTOR('',#1581,1.);
#1581=DIRECTION('',(1.,0.,0.));
#1582=CARTESIAN_POINT('',(-0.635,1.27,0.667));
#1583=VECTOR('',#1584,1.);
#1584=DIRECTION('',(0.,-1.,0.));
#1585=CARTESIAN_POINT('',(0.635,1.2065,0.54));
#1586=VECTOR('',#1587,1.);
#1587=DIRECTION('',(0.,0.,1.));
#1588=CARTESIAN_POINT('',(-0.635,1.2065,0.54));
#1589=VECTOR('',#1590,1.);
#1590=DIRECTION('',(0.,0.,1.));
#1591=CARTESIAN_POINT('',(0.826,1.206,0.));
#1592=CARTESIAN_POINT('',(0.826,1.206,0.54));
#1593=VECTOR('',#1594,1.);
#1594=DIRECTION('',(-2.05596856412066E-016,4.11193712824132E-016,-1.));
#1595=CARTESIAN_POINT('',(1.27,0.762,2.54));
#1596=CARTESIAN_POINT('',(1.27,0.762,2.54));
#1597=VECTOR('',#1598,1.);
#1598=DIRECTION('',(-0.707106781186548,0.707106781186548,0.));
#1599=CARTESIAN_POINT('',(1.27,0.762,0.));
#1600=CARTESIAN_POINT('',(1.27,0.761999999999999,0.));
#1601=VECTOR('',#1602,1.);
#1602=DIRECTION('',(0.,0.,1.));
#1603=CARTESIAN_POINT('',(1.27,0.762,0.));
#1604=VECTOR('',#1605,1.);
#1605=DIRECTION('',(-0.707106781186548,0.707106781186548,0.));
#1606=CARTESIAN_POINT('',(0.826,-1.206,0.));
#1607=CARTESIAN_POINT('',(0.826,-1.206,0.));
#1608=VECTOR('',#1609,1.);
#1609=DIRECTION('',(0.,1.,0.));
#1610=CARTESIAN_POINT('',(0.826,-1.206,-2.46519032881566E-032));
#1611=VECTOR('',#1612,1.);
#1612=DIRECTION('',(2.05596856412066E-016,0.,1.));
#1613=CARTESIAN_POINT('',(1.27,-0.762,0.));
#1614=CARTESIAN_POINT('',(0.826,-1.206,0.));
#1615=VECTOR('',#1616,1.);
#1616=DIRECTION('',(0.707106781186548,0.707106781186548,0.));
#1617=CARTESIAN_POINT('',(1.27,-0.762,2.54));
#1618=CARTESIAN_POINT('',(1.27,-0.762,0.));
#1619=VECTOR('',#1620,1.);
#1620=DIRECTION('',(0.,0.,1.));
#1621=CARTESIAN_POINT('',(0.762,-1.27,2.54));
#1622=VECTOR('',#1623,1.);
#1623=DIRECTION('',(0.707106781186548,0.707106781186548,0.));
#1624=CARTESIAN_POINT('',(-1.27,-0.762,2.54));
#1625=CARTESIAN_POINT('',(-1.27,-0.762,2.54));
#1626=VECTOR('',#1627,1.);
#1627=DIRECTION('',(0.707106781186547,-0.707106781186548,0.));
#1628=CARTESIAN_POINT('',(-1.27,-0.762,0.));
#1629=CARTESIAN_POINT('',(-1.27,-0.762,0.));
#1630=VECTOR('',#1631,1.);
#1631=DIRECTION('',(0.,0.,1.));
#1632=CARTESIAN_POINT('',(-0.826,-1.206,0.));
#1633=CARTESIAN_POINT('',(-1.27,-0.762,0.));
#1634=VECTOR('',#1635,1.);
#1635=DIRECTION('',(0.707106781186547,-0.707106781186548,0.));
#1636=CARTESIAN_POINT('',(-0.826,-1.206,0.54));
#1637=VECTOR('',#1638,1.);
#1638=DIRECTION('',(-4.11193712824132E-016,0.,-1.));
#1639=CARTESIAN_POINT('',(-0.826,1.206,0.));
#1640=CARTESIAN_POINT('',(-0.826,1.206,0.));
#1641=VECTOR('',#1642,1.);
#1642=DIRECTION('',(0.,-1.,0.));
#1643=CARTESIAN_POINT('',(-0.826,1.206,2.22044604925031E-016));
#1644=VECTOR('',#1645,1.);
#1645=DIRECTION('',(4.11193712824132E-016,4.11193712824132E-016,1.));
#1646=CARTESIAN_POINT('',(-1.27,0.762,0.));
#1647=CARTESIAN_POINT('',(-0.826,1.206,0.));
#1648=VECTOR('',#1649,1.);
#1649=DIRECTION('',(-0.707106781186548,-0.707106781186547,0.));
#1650=CARTESIAN_POINT('',(-1.27,0.762,2.54));
#1651=CARTESIAN_POINT('',(-1.27,0.762,0.));
#1652=VECTOR('',#1653,1.);
#1653=DIRECTION('',(0.,0.,1.));
#1654=CARTESIAN_POINT('',(-0.761999999999996,1.27,2.54));
#1655=VECTOR('',#1656,1.);
#1656=DIRECTION('',(-0.707106781186548,-0.707106781186547,0.));
#1657=CARTESIAN_POINT('',(0.32,0.32,-2.84));
#1658=CARTESIAN_POINT('',(0.32,0.32,0.540000000000001));
#1659=VECTOR('',#1660,1.);
#1660=DIRECTION('',(0.,0.,-1.));
#1661=CARTESIAN_POINT('',(-0.32,0.32,-2.84));
#1662=CARTESIAN_POINT('',(0.32,0.32,-2.84));
#1663=VECTOR('',#1664,1.);
#1664=DIRECTION('',(-1.,0.,0.));
#1665=CARTESIAN_POINT('',(-0.32,0.32,0.540000000000001));
#1666=VECTOR('',#1667,1.);
#1667=DIRECTION('',(0.,0.,-1.));
#1668=CARTESIAN_POINT('',(-0.32,-0.32,-2.84));
#1669=CARTESIAN_POINT('',(-0.32,-0.32,-2.84));
#1670=VECTOR('',#1671,1.);
#1671=DIRECTION('',(0.,1.,0.));
#1672=CARTESIAN_POINT('',(-0.32,-0.32,-2.84));
#1673=VECTOR('',#1674,1.);
#1674=DIRECTION('',(-3.28468350480816E-017,0.,1.));
#1675=CARTESIAN_POINT('',(0.32,-0.32,-2.84));
#1676=CARTESIAN_POINT('',(0.32,-0.32,-2.84));
#1677=VECTOR('',#1678,1.);
#1678=DIRECTION('',(-1.,0.,0.));
#1679=CARTESIAN_POINT('',(0.32,-0.32,-2.84));
#1680=VECTOR('',#1681,1.);
#1681=DIRECTION('',(0.,0.,1.));
#1682=CARTESIAN_POINT('',(0.32,-0.32,-2.84));
#1683=VECTOR('',#1684,1.);
#1684=DIRECTION('',(0.,1.,0.));
#1685=CARTESIAN_POINT('',(-0.635,1.2065,2.54));
#1686=CARTESIAN_POINT('',(-0.635,1.27,2.54));
#1687=VECTOR('',#1688,1.);
#1688=DIRECTION('',(0.,-1.,0.));
#1689=CARTESIAN_POINT('',(-1.27,0.762,2.54));
#1690=VECTOR('',#1691,1.);
#1691=DIRECTION('',(-3.05966975290397E-015,-1.,0.));
#1692=CARTESIAN_POINT('',(-0.635,-1.2065,2.54));
#1693=CARTESIAN_POINT('',(-0.635,-1.2065,2.54));
#1694=VECTOR('',#1695,1.);
#1695=DIRECTION('',(0.,-1.,0.));
#1696=CARTESIAN_POINT('',(0.635,-1.2065,2.54));
#1697=CARTESIAN_POINT('',(0.635,-1.2065,2.54));
#1698=VECTOR('',#1699,1.);
#1699=DIRECTION('',(-1.,0.,0.));
#1700=CARTESIAN_POINT('',(0.635,-1.27,2.54));
#1701=VECTOR('',#1702,1.);
#1702=DIRECTION('',(0.,1.,0.));
#1703=CARTESIAN_POINT('',(1.27,-0.762,2.54));
#1704=VECTOR('',#1705,1.);
#1705=DIRECTION('',(0.,1.,0.));
#1706=CARTESIAN_POINT('',(0.635,1.2065,2.54));
#1707=CARTESIAN_POINT('',(0.635,1.2065,2.54));
#1708=VECTOR('',#1709,1.);
#1709=DIRECTION('',(0.,1.,0.));
#1710=CARTESIAN_POINT('',(-0.635,1.2065,2.54));
#1711=VECTOR('',#1712,1.);
#1712=DIRECTION('',(1.,0.,0.));
#1713=CARTESIAN_POINT('',(0.32,0.32,2.54));
#1714=CARTESIAN_POINT('',(-0.32,0.32,2.54));
#1715=CARTESIAN_POINT('',(0.32,0.32,2.54));
#1716=VECTOR('',#1717,1.);
#1717=DIRECTION('',(-1.,0.,0.));
#1718=CARTESIAN_POINT('',(0.32,-0.32,2.54));
#1719=CARTESIAN_POINT('',(0.32,0.32,2.54));
#1720=VECTOR('',#1721,1.);
#1721=DIRECTION('',(0.,-1.,0.));
#1722=CARTESIAN_POINT('',(-0.32,-0.32,2.54));
#1723=CARTESIAN_POINT('',(-0.32,-0.32,2.54));
#1724=VECTOR('',#1725,1.);
#1725=DIRECTION('',(1.,0.,0.));
#1726=CARTESIAN_POINT('',(-0.32,0.32,2.54));
#1727=VECTOR('',#1728,1.);
#1728=DIRECTION('',(0.,-1.,0.));
#1729=CARTESIAN_POINT('',(-0.635,1.2065,2.413));
#1730=CARTESIAN_POINT('',(-0.635,1.2065,2.413));
#1731=VECTOR('',#1732,1.);
#1732=DIRECTION('',(0.,0.,1.));
#1733=CARTESIAN_POINT('',(-0.635,1.27,2.413));
#1734=VECTOR('',#1735,1.);
#1735=DIRECTION('',(0.,-1.,0.));
#1736=CARTESIAN_POINT('',(0.635,1.2065,2.413));
#1737=CARTESIAN_POINT('',(-0.635,1.2065,2.413));
#1738=VECTOR('',#1739,1.);
#1739=DIRECTION('',(1.,0.,0.));
#1740=CARTESIAN_POINT('',(0.635,1.2065,2.413));
#1741=VECTOR('',#1742,1.);
#1742=DIRECTION('',(0.,1.,0.));
#1743=CARTESIAN_POINT('',(0.635,1.2065,2.413));
#1744=VECTOR('',#1745,1.);
#1745=DIRECTION('',(0.,0.,1.));
#1746=CARTESIAN_POINT('',(0.635,-1.2065,2.413));
#1747=CARTESIAN_POINT('',(0.635,-1.2065,2.413));
#1748=VECTOR('',#1749,1.);
#1749=DIRECTION('',(0.,0.,1.));
#1750=CARTESIAN_POINT('',(0.635,-1.27,2.413));
#1751=VECTOR('',#1752,1.);
#1752=DIRECTION('',(0.,1.,0.));
#1753=CARTESIAN_POINT('',(-0.635,-1.2065,2.413));
#1754=CARTESIAN_POINT('',(0.635,-1.2065,2.413));
#1755=VECTOR('',#1756,1.);
#1756=DIRECTION('',(-1.,0.,0.));
#1757=CARTESIAN_POINT('',(-0.635,-1.2065,2.413));
#1758=VECTOR('',#1759,1.);
#1759=DIRECTION('',(0.,-1.,0.));
#1760=CARTESIAN_POINT('',(-0.635,-1.2065,2.413));
#1761=VECTOR('',#1762,1.);
#1762=DIRECTION('',(0.,0.,1.));
#1763=CARTESIAN_POINT('',(1.27,-0.762,0.));
#1764=VECTOR('',#1765,1.);
#1765=DIRECTION('',(0.,1.,0.));
#1766=CARTESIAN_POINT('',(-1.27,0.762,0.));
#1767=VECTOR('',#1768,1.);
#1768=DIRECTION('',(-3.05966975290397E-015,-1.,0.));
#1769=CARTESIAN_POINT('',(-0.16,0.16,-3.));
#1770=CARTESIAN_POINT('',(-0.32,0.32,-2.84));
#1771=VECTOR('',#1772,1.);
#1772=DIRECTION('',(0.577350269189626,-0.577350269189625,-0.577350269189626));
#1773=CARTESIAN_POINT('',(0.16,0.16,-3.));
#1774=CARTESIAN_POINT('',(0.16,0.16,-3.));
#1775=VECTOR('',#1776,1.);
#1776=DIRECTION('',(0.577350269189625,0.577350269189626,0.577350269189627));
#1777=CARTESIAN_POINT('',(0.16,0.16,-3.));
#1778=VECTOR('',#1779,1.);
#1779=DIRECTION('',(-1.,0.,0.));
#1780=CARTESIAN_POINT('',(-0.16,-0.16,-3.));
#1781=CARTESIAN_POINT('',(-0.16,0.16,-3.));
#1782=VECTOR('',#1783,1.);
#1783=DIRECTION('',(0.,-1.,0.));
#1784=CARTESIAN_POINT('',(-0.16,-0.16,-3.));
#1785=VECTOR('',#1786,1.);
#1786=DIRECTION('',(-0.577350269189626,-0.577350269189625,0.577350269189626));
#1787=CARTESIAN_POINT('',(0.16,-0.16,-3.));
#1788=CARTESIAN_POINT('',(0.16,-0.16,-3.));
#1789=VECTOR('',#1790,1.);
#1790=DIRECTION('',(-1.,0.,0.));
#1791=CARTESIAN_POINT('',(0.32,-0.32,-2.84));
#1792=VECTOR('',#1793,1.);
#1793=DIRECTION('',(-0.577350269189625,0.577350269189625,-0.577350269189627));
#1794=CARTESIAN_POINT('',(0.16,-0.16,-3.));
#1795=VECTOR('',#1796,1.);
#1796=DIRECTION('',(0.,1.,0.));
#1797=CARTESIAN_POINT('',(-0.32,0.32,8.44));
#1798=CARTESIAN_POINT('',(-0.32,0.32,8.44));
#1799=VECTOR('',#1800,1.);
#1800=DIRECTION('',(0.,0.,-1.));
#1801=CARTESIAN_POINT('',(0.32,0.32,8.44));
#1802=CARTESIAN_POINT('',(0.32,0.32,8.44));
#1803=VECTOR('',#1804,1.);
#1804=DIRECTION('',(-1.,0.,0.));
#1805=CARTESIAN_POINT('',(0.32,0.32,8.44));
#1806=VECTOR('',#1807,1.);
#1807=DIRECTION('',(0.,0.,-1.));
#1808=CARTESIAN_POINT('',(0.32,-0.32,8.44));
#1809=CARTESIAN_POINT('',(0.32,0.32,8.44));
#1810=VECTOR('',#1811,1.);
#1811=DIRECTION('',(0.,-1.,0.));
#1812=CARTESIAN_POINT('',(0.32,-0.32,2.54));
#1813=VECTOR('',#1814,1.);
#1814=DIRECTION('',(0.,-9.40866970021319E-018,1.));
#1815=CARTESIAN_POINT('',(-0.32,-0.32,8.44));
#1816=CARTESIAN_POINT('',(0.32,-0.32,8.44));
#1817=VECTOR('',#1818,1.);
#1818=DIRECTION('',(-1.,0.,0.));
#1819=CARTESIAN_POINT('',(-0.32,-0.32,2.54));
#1820=VECTOR('',#1821,1.);
#1821=DIRECTION('',(1.88173394004264E-017,-9.40866970021319E-018,1.));
#1822=CARTESIAN_POINT('',(-0.32,0.32,8.44));
#1823=VECTOR('',#1824,1.);
#1824=DIRECTION('',(0.,-1.,0.));
#1825=CARTESIAN_POINT('',(-0.160000000000001,0.16,8.6));
#1826=CARTESIAN_POINT('',(-0.160000000000001,0.16,8.6));
#1827=VECTOR('',#1828,1.);
#1828=DIRECTION('',(-0.577350269189625,0.577350269189625,-0.577350269189627));
#1829=CARTESIAN_POINT('',(0.16,0.16,8.6));
#1830=CARTESIAN_POINT('',(0.16,0.16,8.6));
#1831=VECTOR('',#1832,1.);
#1832=DIRECTION('',(-1.,0.,0.));
#1833=CARTESIAN_POINT('',(0.32,0.32,8.44));
#1834=VECTOR('',#1835,1.);
#1835=DIRECTION('',(-0.577350269189626,-0.577350269189626,0.577350269189626));
#1836=CARTESIAN_POINT('',(0.16,-0.16,8.6));
#1837=CARTESIAN_POINT('',(0.16,0.16,8.6));
#1838=VECTOR('',#1839,1.);
#1839=DIRECTION('',(0.,-1.,0.));
#1840=CARTESIAN_POINT('',(0.16,-0.16,8.6));
#1841=VECTOR('',#1842,1.);
#1842=DIRECTION('',(0.577350269189626,-0.577350269189625,-0.577350269189626));
#1843=CARTESIAN_POINT('',(-0.160000000000001,-0.16,8.6));
#1844=CARTESIAN_POINT('',(-0.32,-0.32,8.44));
#1845=VECTOR('',#1846,1.);
#1846=DIRECTION('',(0.577350269189625,0.577350269189625,0.577350269189627));
#1847=CARTESIAN_POINT('',(0.16,-0.16,8.6));
#1848=VECTOR('',#1849,1.);
#1849=DIRECTION('',(-1.,0.,0.));
#1850=CARTESIAN_POINT('',(-0.160000000000001,-0.16,8.6));
#1851=VECTOR('',#1852,1.);
#1852=DIRECTION('',(0.,1.,0.));
ENDSEC;
END-ISO-10303-21;
